<svg width="92" height="96" viewBox="0 0 92 96" fill="none" xmlns="http://www.w3.org/2000/svg">
<path d="M58.1568 24.0186H13.8246C6.18948 24.0186 0 30.2081 0 37.8432V82.1754C0 89.8105 6.18948 96 13.8246 96H58.1568C65.7919 96 71.9814 89.8105 71.9814 82.1754V37.8432C71.9814 30.2081 65.7919 24.0186 58.1568 24.0186Z" fill="#77E0A5"/>
<path d="M28.7591 79.7701C27.1101 79.1626 26.5025 77.9475 26.6472 76.2696C26.6472 75.9224 26.6472 75.5463 26.6472 75.1991C26.6761 74.2444 26.6472 73.3765 25.9529 72.5376C25.5768 72.0747 25.4032 71.2936 25.4032 70.6571C25.4032 59.6925 25.2875 48.7568 25.4321 37.7922C25.5189 32.064 27.6308 26.9723 31.3918 22.6327C31.9704 21.9673 32.8094 21.8226 33.359 22.3145C33.9376 22.8352 33.9666 23.5585 33.3301 24.2818C31.0446 26.9434 29.4824 29.9521 28.6434 33.3659C28.4119 34.2916 28.4119 34.2917 29.3666 34.4074C30.871 34.581 32.3754 34.7256 33.8798 34.9281C34.5163 35.0149 34.632 34.7546 34.632 34.2338C34.632 32.1219 34.632 30.0389 34.632 27.9269C34.632 27.6666 34.632 27.4062 34.632 27.1459C34.6898 26.4515 35.2395 25.9308 35.9049 25.9597C36.5414 25.9597 37.0621 26.4515 37.0911 27.1459C37.12 28.0138 37.0911 28.8817 37.0911 29.7496C37.0911 29.8942 37.1489 30.0389 37.1778 30.2993C37.4671 30.2125 37.6986 30.1546 37.93 30.0679C41.4306 28.766 45.0469 28.1006 48.721 27.7823C51.209 27.5509 53.726 27.4641 56.2429 27.3194C56.6769 27.3194 56.9083 27.1748 56.9083 26.7119C56.9083 25.3233 56.9083 23.9346 56.9083 22.5459C56.9083 22.0252 56.648 21.9095 56.1851 21.8805C53.8128 21.7069 51.4984 21.3019 49.2997 20.3472C47.7085 19.6818 46.233 18.785 45.0469 17.5121C44.6708 17.0781 44.3236 17.0492 43.8318 17.2806C43.0796 17.6278 42.3274 17.946 41.5752 18.2642C40.7363 18.5825 40.0419 18.351 39.7526 17.6567C39.4633 16.9624 39.7526 16.297 40.5916 15.9209C41.4017 15.5448 42.2407 15.1976 43.0796 14.8505C43.5714 14.6769 43.7161 14.3587 43.7161 13.8669C43.7161 12.4493 43.745 11.0317 43.7161 9.64305C43.6004 6.9236 44.8733 4.98519 47.1009 3.59653C49.0971 2.35253 51.2958 1.71609 53.6103 1.36893C57.5448 0.761391 61.4215 0.87712 65.2692 1.91861C67.1786 2.43936 68.9433 3.19153 70.4477 4.52232C71.8364 5.7374 72.5886 7.24176 72.5886 9.12223C72.5886 10.6555 72.5886 12.1889 72.5886 13.7511C72.5886 14.3876 72.7622 14.7058 73.3697 14.9662C76.147 16.0945 78.8954 17.3095 81.2677 19.19C86.7644 23.5874 90.0046 29.2289 90.7857 36.23C90.9015 37.1558 90.9304 38.1104 90.9304 39.0651C90.9304 49.4222 90.9304 59.8082 90.9304 70.1652C90.9304 71.3225 90.67 72.335 89.9178 73.2318C89.7442 73.4344 89.6575 73.7816 89.6575 74.0709C89.6285 74.7941 89.5996 75.5173 89.6575 76.2117C89.7732 77.9186 89.2235 79.1916 87.5455 79.7991H79.9947C78.3457 79.2205 77.7092 78.0054 77.8539 76.3274C77.9117 75.7488 77.9117 75.1413 77.8539 74.5627C77.796 74.1577 77.5646 73.7815 77.391 73.4344C77.0149 72.6533 76.4942 71.9011 76.2049 71.0621C75.9734 70.3967 75.9155 69.6445 75.8577 68.9502C75.7998 68.1402 75.4527 67.9087 74.6426 67.9087C65.1535 67.9376 55.6643 67.9087 46.2041 67.9087C44.6129 67.9087 43.0218 67.9087 41.4306 67.9087C40.8231 67.9087 40.5627 68.1112 40.4759 68.7187C40.3891 69.4709 40.3023 70.252 40.0998 70.9753C39.8973 71.6696 39.7237 72.5086 39.2319 72.9715C38.4797 73.6947 38.364 74.4759 38.4218 75.3728C38.4218 75.691 38.4218 75.9802 38.4218 76.2985C38.5665 77.9764 37.93 79.1915 36.281 79.7701H28.7302H28.7591ZM69.3484 41.7268C72.3282 41.7268 75.308 41.7268 78.2589 41.7268C78.9822 41.7268 79.2425 41.5242 79.2425 40.772C79.2136 38.2551 79.2425 35.7382 79.2425 33.2212C79.2425 31.9772 79.2425 31.9772 78.0564 31.6879C72.1546 30.2125 66.166 29.9232 60.1196 29.8364C59.4253 29.8364 59.3963 30.2124 59.3963 30.7332C59.3963 34.0891 59.3963 37.4451 59.3963 40.801C59.3963 41.5242 59.6567 41.7268 60.351 41.7268C63.3598 41.7268 66.3396 41.7268 69.3484 41.7268ZM79.2425 29.2867C79.2425 28.5056 79.1557 27.8113 79.2715 27.1459C79.3293 26.7408 79.6476 26.2491 79.9947 26.1044C80.3419 25.9598 80.9494 26.0465 81.2387 26.278C81.528 26.5094 81.7016 27.0591 81.7016 27.493C81.7595 29.7206 81.7306 31.9483 81.7016 34.1759C81.7016 34.7545 81.8463 34.986 82.5117 34.8992C84.045 34.6677 85.5494 34.4942 87.0827 34.3784C87.7481 34.3206 87.8349 34.0892 87.6902 33.5106C86.5908 29.2 84.4211 25.5258 81.1809 22.4592C78.5771 20.029 75.4527 18.4957 72.1835 17.2228C71.9521 17.136 71.5471 17.2228 71.3446 17.3964C70.7081 17.8592 70.1584 18.4668 69.522 18.9297C66.7157 20.8969 63.5045 21.5912 60.1485 21.8227C59.541 21.8806 59.3385 22.0831 59.3674 22.6617C59.3674 23.9346 59.3674 25.2365 59.3674 26.5094C59.3674 27.0591 59.5699 27.2616 60.1485 27.2616C61.9422 27.2616 63.7359 27.2616 65.5296 27.4352C68.7408 27.7245 71.9521 28.0717 75.1634 28.4478C76.4652 28.6213 77.7671 28.9685 79.2425 29.2578V29.2867ZM46.9852 41.7268C49.994 41.7268 52.9738 41.7268 55.9826 41.7268C56.6769 41.7268 56.9373 41.4953 56.9083 40.801C56.9083 37.4451 56.9083 34.0891 56.9083 30.7332C56.9083 30.0678 56.6769 29.8075 56.0115 29.8653C52.9738 30.0968 49.9072 30.2125 46.8984 30.5596C43.8029 30.9068 40.7941 31.6011 37.9011 32.8162C37.2936 33.0766 37.0332 33.4237 37.0621 34.0891C37.091 36.3168 37.091 38.5444 37.0621 40.772C37.0621 41.5242 37.3225 41.7268 38.0457 41.7268C41.0256 41.6978 44.0054 41.7268 46.9852 41.7268ZM46.9563 54.8322C49.965 54.8322 52.9449 54.8322 55.9536 54.8322C56.6769 54.8322 56.9373 54.6296 56.9373 53.8775C56.9083 50.9844 56.9083 48.0914 56.9373 45.1984C56.9373 44.4751 56.7347 44.2147 55.9826 44.2147C49.994 44.2147 44.0343 44.2147 38.0457 44.2147C37.3225 44.2147 37.0621 44.4462 37.0621 45.1984C37.091 48.0914 37.091 50.9844 37.0621 53.8775C37.0621 54.6007 37.2646 54.8611 38.0168 54.8611C40.9966 54.8321 43.9765 54.8611 46.9273 54.8611L46.9563 54.8322ZM69.2905 54.8322C72.3282 54.8322 75.3369 54.8322 78.3746 54.8322C79.069 54.8322 79.2715 54.6008 79.2425 53.9354C79.2425 51.0134 79.2136 48.0914 79.2425 45.1695C79.2425 44.4173 79.0111 44.1859 78.2589 44.1859C72.2703 44.1859 66.3107 44.1859 60.3221 44.1859C59.6567 44.1859 59.3674 44.3594 59.3674 45.1116C59.3963 48.0625 59.3963 51.0134 59.3674 53.9642C59.3674 54.6586 59.5988 54.8322 60.2642 54.8322C63.273 54.8322 66.2528 54.8322 69.2616 54.8322H69.2905ZM46.2909 11.6681C46.2909 12.3914 46.3488 13.1147 46.2909 13.809C46.1462 14.9373 46.667 15.6605 47.477 16.297C50.0518 18.351 53.0606 19.0454 56.214 19.2768C56.7637 19.3057 56.9373 19.0454 56.9083 18.5536C56.9083 17.5988 56.9083 16.6441 56.9083 15.7183C56.8794 13.8668 57.2555 14.1272 55.1725 13.8669C53.4946 13.6643 51.8166 13.3172 50.3701 12.3625C48.5764 11.1764 48.4896 9.2091 50.2833 8.02296C51.1223 7.47328 52.1059 7.06824 53.0895 6.8368C56.1851 6.05568 59.3385 6.05569 62.4629 6.66323C63.8516 6.9236 65.2113 7.32862 66.3107 8.28332C67.5836 9.38267 67.6125 11.0028 66.3107 12.0732C65.7899 12.5071 65.1535 12.8832 64.517 13.0568C63.0705 13.4618 61.5661 13.7222 60.0907 13.9826C59.5988 14.0694 59.3674 14.214 59.3674 14.7347C59.3674 16.0077 59.3674 17.3096 59.3674 18.5825C59.3674 19.1033 59.5699 19.3636 60.0907 19.2768C61.2189 19.1032 62.3762 19.0164 63.5044 18.785C65.5296 18.3221 67.41 17.541 69.0012 16.1524C69.6377 15.6027 70.0427 14.9662 70.0138 14.0404C69.927 12.5939 69.927 11.1185 70.0138 9.64305C70.1295 7.90723 69.3484 6.74996 67.9887 5.88205C67.439 5.53489 66.8314 5.1877 66.2239 4.95626C62.0869 3.36509 57.8341 3.24938 53.4945 3.97264C51.4984 4.3198 49.6179 4.89847 47.9399 6.11354C46.8406 6.92359 46.1752 7.93608 46.262 9.3826C46.3198 10.1637 46.262 10.916 46.262 11.6971L46.2909 11.6681ZM47.0142 57.4359C43.9765 57.4359 40.9677 57.4359 37.93 57.4359C37.3225 57.4359 37.0621 57.6095 37.0621 58.2749C37.091 60.0686 37.0621 61.8622 37.0621 63.6559C37.0621 64.871 37.5539 65.3628 38.7401 65.3628C44.4972 65.3628 50.2833 65.3628 56.0404 65.3628C56.6769 65.3628 56.9083 65.1604 56.8794 64.5239C56.8794 62.4409 56.8505 60.3578 56.8794 58.3038C56.8794 57.6095 56.619 57.4359 55.9536 57.4359C52.9449 57.4359 49.965 57.4359 46.9563 57.4359H47.0142ZM69.4062 57.4359C66.3685 57.4359 63.3598 57.4359 60.3221 57.4359C59.5989 57.4359 59.3963 57.6963 59.3963 58.3617C59.4253 60.3868 59.4253 62.412 59.3963 64.4371C59.3963 65.1314 59.5989 65.3628 60.3221 65.3628C66.0503 65.3628 71.7496 65.3628 77.4778 65.3628C78.7507 65.3628 79.2136 64.9 79.2425 63.5981C79.2425 61.8623 79.2425 60.0975 79.2425 58.3617C79.2425 57.6385 78.9822 57.4359 78.3168 57.4649C75.337 57.4938 72.3571 57.4649 69.4062 57.4649V57.4359ZM27.978 42.5368C27.978 42.5368 27.978 42.5368 27.9491 42.5368C27.9491 44.1858 27.9491 45.8059 27.9491 47.4549C27.9491 48.0335 28.1226 48.2939 28.7591 48.265C30.4371 48.236 32.144 48.236 33.8508 48.265C34.4584 48.265 34.6609 48.0335 34.632 47.4549C34.632 44.4172 34.632 41.4085 34.632 38.3708C34.632 37.7344 34.3716 37.5029 33.793 37.4451C32.115 37.2715 30.4371 37.0979 28.7591 36.8954C28.2094 36.8375 28.0069 36.9822 28.0069 37.5318C28.0069 39.2098 28.0069 40.8589 28.0069 42.5368H27.978ZM88.3845 42.5368C88.3845 40.9167 88.3845 39.2966 88.3845 37.6765C88.3845 37.1269 88.2688 36.8375 87.6034 36.9243C85.9255 37.1558 84.2475 37.3004 82.5695 37.474C81.9909 37.5319 81.7884 37.7922 81.7884 38.3708C81.7884 41.4085 81.7884 44.4172 81.7884 47.4549C81.7884 48.1203 82.0488 48.2939 82.6563 48.265C84.3054 48.236 85.9544 48.236 87.5745 48.265C88.2109 48.265 88.4424 48.0336 88.4135 47.3971C88.3845 45.777 88.4135 44.1569 88.4135 42.5368H88.3845ZM34.603 56.1051C34.603 54.6008 34.603 53.0674 34.603 51.5631C34.603 51.0713 34.4584 50.8108 33.9087 50.8108C32.1729 50.8108 30.4371 50.8108 28.6723 50.8108C28.1516 50.8108 27.9491 51.0134 27.9491 51.5341C27.9491 54.5718 27.9491 57.6384 27.9491 60.6761C27.9491 61.2547 28.1516 61.4572 28.7013 61.4572C30.3792 61.4572 32.0861 61.4283 33.7641 61.4572C34.4295 61.4572 34.603 61.1679 34.603 60.5893C34.603 59.1139 34.603 57.6095 34.603 56.134V56.1051ZM88.3845 56.163C88.3845 54.6586 88.3845 53.1542 88.3845 51.6209C88.3845 51.0423 88.182 50.8108 87.5745 50.8108C85.8965 50.8108 84.2475 50.8108 82.5695 50.8108C81.9331 50.8108 81.7306 51.0423 81.7306 51.6788C81.7306 54.6586 81.7306 57.6095 81.7306 60.5893C81.7306 61.1968 81.9331 61.4572 82.5695 61.4572C84.2475 61.4283 85.8965 61.4283 87.5745 61.4572C88.182 61.4572 88.3845 61.2547 88.3845 60.6471C88.3845 59.1717 88.3845 57.6674 88.3845 56.1919V56.163ZM32.7515 71.93C33.8509 71.93 34.9502 71.93 36.0496 71.93C36.9753 71.93 37.4093 71.525 37.5829 70.6281C37.7275 69.9627 37.7854 69.2684 37.93 68.5741C38.0458 68.0534 37.9011 67.8508 37.3804 67.7062C35.847 67.2722 34.8923 66.2018 34.632 64.6395C34.5452 64.1477 34.3427 63.9163 33.8508 63.9452C32.144 63.9452 30.4081 63.9452 28.7013 63.9452C28.1516 63.9452 27.9201 64.1189 27.9201 64.6975C27.9201 66.6069 27.9201 68.4873 27.9201 70.3967C27.9201 71.4672 28.4119 71.93 29.4824 71.9589C30.5528 71.9589 31.6232 71.9589 32.7226 71.9589L32.7515 71.93ZM83.6978 71.93C84.7682 71.93 85.8387 71.93 86.938 71.93C87.8927 71.93 88.3845 71.4382 88.3845 70.5124C88.3845 68.603 88.3845 66.6647 88.3845 64.7553C88.3845 64.2635 88.211 64.061 87.7191 64.061C86.0122 64.061 84.2764 64.0031 82.5695 63.9742C82.0488 63.9742 81.7884 64.1478 81.7016 64.6975C81.528 65.9415 80.8337 66.8672 79.7344 67.4747C79.2715 67.7062 78.6061 67.8509 78.4325 68.227C78.2589 68.632 78.5482 69.2684 78.6061 69.7891C78.6061 69.9338 78.635 70.1074 78.6639 70.252C78.8954 71.5539 79.3583 71.9589 80.6601 71.9879C81.6727 71.9879 82.6563 71.9879 83.6689 71.9879L83.6978 71.93ZM51.8745 10.1638C54.2467 11.9864 62.868 11.8128 64.4881 10.1638C62.3183 8.42795 54.1021 8.42795 51.8745 10.1638ZM32.5779 77.1953C33.0697 77.1953 33.5615 77.1953 34.0244 77.1953C36.1363 77.1374 35.8181 77.5714 35.876 75.3148C35.876 74.7362 35.6735 74.5627 35.1238 74.5627C33.793 74.5627 32.4622 74.5338 31.1314 74.5627C28.9616 74.5916 29.2509 74.0998 29.2509 76.6167C29.2509 77.0796 29.4824 77.2532 29.9163 77.2243C30.8132 77.2243 31.71 77.2243 32.6068 77.2243L32.5779 77.1953ZM83.7846 77.1953C84.3054 77.1953 84.7972 77.1953 85.3179 77.1953C87.343 77.1664 87.0827 77.5714 87.1116 75.3148C87.1116 74.7652 86.9091 74.5338 86.3594 74.5338C85.0286 74.5338 83.6978 74.5338 82.367 74.5338C80.2262 74.5627 80.5444 74.1287 80.5155 76.501C80.5155 76.9928 80.6891 77.1953 81.1809 77.1953C82.0488 77.1953 82.9167 77.1953 83.7846 77.1953Z" fill="#1C1C1B" stroke="#1C1C1B" stroke-width="0.23" stroke-miterlimit="10"/>
</svg>
