<svg width="88" height="91" viewBox="0 0 88 91" fill="none" xmlns="http://www.w3.org/2000/svg">
<path d="M57.7522 19.5193H13.7284C6.14643 19.5193 0 25.6658 0 33.2478V77.2716C0 84.8536 6.14643 91 13.7284 91H57.7522C65.3342 91 71.4807 84.8536 71.4807 77.2716V33.2478C71.4807 25.6658 65.3342 19.5193 57.7522 19.5193Z" fill="#77E0A5"/>
<path d="M25.6754 1.18386C26.1258 0.853596 26.6148 0.791783 27.1267 1.00221C27.3972 1.10763 27.5997 1.26881 27.7333 1.48104C27.8665 1.69257 27.9257 1.94583 27.9257 2.2268V3.5566L27.8978 3.58512V4.73136C27.8978 5.11718 27.7859 5.43429 27.5622 5.66974C27.3402 5.90346 27.0203 6.04387 26.6277 6.1022C26.3373 6.15021 26.0212 6.04482 25.7648 5.8665C25.5074 5.68741 25.2914 5.42197 25.2129 5.12369L25.2125 5.12226L25.2113 5.11768C25.1564 4.89787 25.0977 4.66294 25.0977 4.39743V2.6164C25.0977 2.1066 25.1816 1.55426 25.6744 1.18463L25.6754 1.18386Z" fill="#1C1C1B"/>
<path d="M24.113 5.78003H21.525L21.5195 5.78015C20.839 5.81109 20.2987 6.39407 20.2091 7.08113L20.2086 7.08964C20.1926 7.36126 20.3034 7.65896 20.4771 7.90653C20.6508 8.15422 20.8988 8.36812 21.1787 8.4621C21.4133 8.54976 21.705 8.60812 21.9702 8.60812H23.8347C24.0481 8.60812 24.2854 8.54787 24.4799 8.49227L24.4849 8.49062C24.8439 8.37097 25.1189 8.15171 25.2879 7.86355C25.4568 7.57574 25.5153 7.22617 25.4559 6.85432C25.4082 6.56863 25.2285 6.30087 24.9888 6.10606C24.7483 5.91068 24.437 5.78003 24.113 5.78003Z" fill="#1C1C1B"/>
<path fill-rule="evenodd" clip-rule="evenodd" d="M60.6721 25.3663L61.0099 25.3202C60.7165 25.2323 60.398 25.2041 60.0859 25.2041H22.2667C21.9201 25.2041 21.5755 25.2617 21.2617 25.3473C20.9714 25.4238 20.7144 25.5985 20.5297 25.8171C20.3454 26.0353 20.2266 26.3053 20.2266 26.5764C20.2266 26.857 20.2856 27.1378 20.4358 27.3805C20.5871 27.6249 20.8259 27.8224 21.1698 27.942L21.1713 27.9425C21.4403 28.0322 21.7349 28.0322 21.98 28.0322L41.3968 28.0322L41.3689 28.0043H60.6425C60.9665 28.0043 61.2777 27.8737 61.5182 27.6783C61.7574 27.4839 61.9369 27.2169 61.985 26.932L61.8629 26.9383C61.8647 26.929 61.8665 26.9197 61.868 26.9103C62.0072 26.2146 61.6732 25.6302 60.9775 25.4354C60.8788 25.4058 60.7765 25.3832 60.6721 25.3663ZM41.3689 28.0043L42.247 27.8843H43.676L41.3689 28.0043Z" fill="#1C1C1B"/>
<path fill-rule="evenodd" clip-rule="evenodd" d="M60.6638 39.8704H21.481L21.4678 39.8711C20.9203 39.9319 20.5522 40.2406 20.342 40.72C20.223 40.9734 20.1821 41.2135 20.2217 41.4471C20.2612 41.68 20.3785 41.8943 20.5549 42.1001L20.5586 42.104C21.0076 42.5829 21.5471 42.6985 22.121 42.6985H59.9402C60.3069 42.6985 60.7102 42.6704 61.0886 42.554C61.7966 42.3385 62.1255 41.6608 62.0068 40.9459C61.9132 40.2955 61.3827 39.8704 60.6638 39.8704ZM20.342 40.72L20.3427 40.7185L20.4513 40.7696L20.3413 40.7215L20.342 40.72Z" fill="#1C1C1B"/>
<path d="M22.0841 54.4528C21.7175 54.4528 21.3575 54.4803 20.9959 54.6906C20.7633 54.8153 20.5546 55.0421 20.4147 55.2851C20.2763 55.5255 20.1909 55.8071 20.241 56.0436C20.3604 56.6675 20.8671 57.2185 21.4593 57.2808L60.7103 57.2812L60.7202 57.2804C61.4497 57.2196 62.027 56.5838 62.027 55.8807C62.027 55.1824 61.4545 54.5141 60.7486 54.4528H22.0841Z" fill="#1C1C1B"/>
<path fill-rule="evenodd" clip-rule="evenodd" d="M14.3477 25.1852C14.4451 24.893 14.5355 24.6077 14.626 24.3225C14.7164 24.0372 14.8069 23.752 14.9043 23.4598C15.2104 22.5693 15.7113 21.8179 16.3236 21.1222C17.2141 20.0925 18.2716 19.2577 19.5517 18.7568C19.9725 18.5915 20.4014 18.4424 20.834 18.292C21.2025 18.1639 21.5737 18.0348 21.9449 17.894C23.9764 17.1427 26.0079 16.3635 28.0116 15.5843C28.3608 15.4541 28.7113 15.3238 29.0625 15.1934C30.3622 14.7104 31.6727 14.2236 32.9651 13.7197C33.6787 13.4547 34.3886 13.1859 35.0975 12.9175L35.0985 12.917L35.0996 12.9167C36.3248 12.4527 37.548 11.9896 38.7813 11.5491C38.9292 11.4963 39.076 11.4415 39.2225 11.3868C39.8484 11.1532 40.4705 10.921 41.1467 10.8534C41.2623 10.8437 41.378 10.8308 41.4924 10.8179C41.7086 10.7937 41.9206 10.7699 42.1207 10.7699H78.8824C80.9417 10.7699 82.7506 11.4656 84.3647 12.7458C85.8396 13.9424 86.8136 15.4452 87.231 17.2818C87.8433 19.9256 87.3702 22.3745 85.7005 24.573C85.1439 25.3243 84.476 25.9365 83.6968 26.4653C83.4185 26.6601 83.4185 26.7158 83.6968 26.9106C85.5335 28.135 86.7302 29.8326 87.2033 31.9754C87.7598 34.3408 87.4259 36.5671 86.0901 38.6265C85.4501 39.6283 84.6152 40.4075 83.6968 41.131C83.6551 41.1589 83.6203 41.1867 83.5855 41.2145C83.5508 41.2423 83.5159 41.2702 83.4742 41.298C83.502 41.3258 83.5268 41.3567 83.5515 41.3877C83.601 41.4495 83.6505 41.5113 83.7247 41.5484C83.836 41.6319 83.9473 41.7224 84.0586 41.8128C84.1699 41.9033 84.2812 41.9937 84.3925 42.0772C85.9788 43.3573 86.9527 45.027 87.3145 47.0307C87.7598 49.4796 87.2867 51.7338 85.8118 53.7374C84.8656 55.0175 83.669 55.9637 82.1384 56.5203C78.6877 57.8004 75.2647 59.0805 71.814 60.3885C69.1424 61.3903 66.4709 62.3922 63.8272 63.394C63.521 63.5053 63.2149 63.6236 62.9088 63.7418C62.6027 63.8601 62.2966 63.9784 61.9905 64.0897C61.2113 64.3958 60.4042 64.5071 59.5693 64.5071H22.8355C20.8875 64.5071 19.1621 63.8671 17.6037 62.6705C16.0174 61.446 15.0991 59.8319 14.5425 57.9396C14.4868 57.7448 14.4312 57.55 14.4034 57.3552V54.4888C14.4145 54.4665 14.4345 54.4443 14.4546 54.422C14.4846 54.3886 14.5147 54.3552 14.5147 54.3218C14.5704 53.5705 14.8486 52.9026 15.1547 52.2625C15.7391 51.0659 16.5462 50.0362 17.6037 49.2013C17.7289 49.1039 17.8472 49.0065 17.9654 48.9091C18.0836 48.8118 18.2021 48.7143 18.3272 48.617C18.0768 48.4222 17.8263 48.2273 17.6037 48.0325C16.0731 46.7524 15.0434 45.1662 14.5703 43.2182C14.5497 43.1149 14.5137 43.0116 14.4738 42.897C14.4599 42.8571 14.4456 42.8159 14.4312 42.7729V39.9066C14.4767 39.7475 14.5128 39.5839 14.5492 39.4194C14.6019 39.1808 14.6549 38.9405 14.7373 38.7099C15.4052 36.8454 16.4627 35.2592 18.1603 34.1738C18.4385 34.0069 18.4385 33.979 18.1603 33.7842C16.3236 32.5598 15.1825 30.8901 14.626 28.7751C14.5981 28.6498 14.5634 28.5316 14.5286 28.4133C14.4938 28.295 14.4591 28.1768 14.4312 28.0515V25.1852H14.3477ZM41.0911 32.7267H55.3672C55.6992 32.7267 56.0325 32.7295 56.3666 32.7322H56.3699C57.547 32.7418 58.7338 32.7516 59.9033 32.6433C61.7957 32.4763 63.2427 31.6414 64.3002 30.1387C65.2742 28.7473 65.636 27.2167 65.3021 25.5191C65.0516 24.2668 64.495 23.2093 63.5766 22.3466C62.4357 21.2335 61.0164 20.6769 59.4023 20.6769H22.8076C22.3902 20.6769 21.945 20.7326 21.5554 20.8161C19.5795 21.2613 18.1602 22.458 17.3532 24.2946C16.6575 25.8252 16.6853 27.4393 17.3532 29.0255C17.9376 30.4448 18.9395 31.4745 20.3309 32.1424C21.3327 32.6155 22.418 32.7546 23.5033 32.7824H41.1189L41.0911 32.7267ZM59.0684 47.2812C59.5693 47.2812 60.0424 47.2812 60.5433 47.1698C62.1852 46.8359 63.4932 46.001 64.3837 44.6096C65.2742 43.2738 65.6082 41.7989 65.3021 40.157C64.9681 38.5151 64.1054 37.2628 62.7974 36.2888C61.7121 35.4818 60.4321 35.2035 59.1241 35.2035H23.2529C22.4458 35.2035 21.611 35.3148 20.8318 35.6209C19.4125 36.1775 18.2993 37.068 17.5758 38.4316C17.0471 39.4613 16.8523 40.5466 16.9079 41.6876C16.9358 42.5503 17.1306 43.3295 17.548 44.053C18.7447 46.1402 20.5535 47.2812 23.0024 47.2812H59.0684ZM41.0911 61.8634H59.0684C59.6806 61.8634 60.2929 61.8634 60.9051 61.6964C62.547 61.2233 63.855 60.2772 64.662 58.7744C65.3299 57.5221 65.5525 56.1863 65.2742 54.7393C64.8011 52.0677 62.3244 49.8692 59.5415 49.8692H22.6685C20.6092 49.8692 19.0508 50.8433 17.882 52.4573C16.6575 54.1549 16.5462 56.0472 17.2141 57.9674C17.7985 59.5815 18.9394 60.7225 20.5535 61.4182C21.3605 61.7521 22.1954 61.8356 23.0303 61.8356H41.0632L41.0911 61.8634ZM42.4825 13.358C41.5363 13.358 40.6737 13.5528 39.811 13.8867C39.5466 13.9841 39.2822 14.0885 39.0178 14.1929C38.7535 14.2972 38.4891 14.4016 38.2247 14.499C35.6088 15.473 32.9651 16.447 30.3492 17.3931C29.9039 17.5601 29.4865 17.7271 29.0413 17.9219C28.9988 17.9219 28.9725 17.9544 28.95 17.9821C28.9431 17.9907 28.9365 17.9988 28.93 18.0054C28.9439 18.0054 28.9647 18.0193 28.9856 18.0332C29.0065 18.0471 29.0274 18.061 29.0413 18.061H58.0109C58.1338 18.061 58.2573 18.0605 58.3811 18.0599C59.1267 18.0565 59.887 18.053 60.6268 18.1723C61.6008 18.3393 62.5748 18.5898 63.4375 19.0907C64.5507 19.7029 65.4969 20.51 66.2482 21.5396C67.3614 23.0424 67.8623 24.7121 67.9736 26.5488C68.0293 27.6341 67.7509 28.6916 67.417 29.7212C67.4031 29.7769 67.3961 29.8256 67.3892 29.8743C67.3822 29.923 67.3753 29.9717 67.3614 30.0274C67.4448 30.0274 67.5562 30.0274 67.6397 29.9995C68.6415 29.6099 69.6712 29.2203 70.673 28.8586L77.2684 26.354C78.5485 25.8809 79.8286 25.4078 81.1088 24.9069C82.0271 24.5729 82.7785 24.0164 83.4464 23.2372C84.8935 21.5118 85.1439 19.5916 84.5873 17.4766C84.2812 16.3635 83.5576 15.5286 82.7228 14.7494C82.2497 14.332 81.721 14.0259 81.1644 13.8033C80.3852 13.4971 79.5782 13.358 78.7433 13.358H42.4825ZM84.8378 33.8677C84.8378 33.8677 84.7822 33.6451 84.7822 33.4781C84.7543 32.0032 84.0864 30.7788 83.1124 29.7491C82.3611 28.9421 81.4149 28.4133 80.3296 28.1628C80.0791 28.1072 79.9121 28.0794 79.6616 28.1628C78.298 28.6916 76.9344 29.2203 75.5708 29.7212C73.0032 30.6868 70.4184 31.6351 67.8435 32.5797L67.8423 32.5802L67.8412 32.5806C67.1518 32.8335 66.4626 33.0863 65.7751 33.339C65.4097 33.4679 65.0609 33.6135 64.7031 33.7629C64.5977 33.8068 64.4913 33.8512 64.3837 33.8955C64.0497 34.0347 64.0776 34.0625 64.328 34.313C64.4682 34.4471 64.6111 34.5812 64.7546 34.7159C65.266 35.1959 65.7859 35.6839 66.2204 36.2053C67.2501 37.4576 67.7231 38.9604 67.9179 40.5745C67.9736 41.0754 67.9736 41.5763 67.9179 42.0772C67.7788 42.9118 67.6396 43.7471 67.2779 44.5261V44.6653H67.4449C67.5562 44.6375 67.6675 44.6096 67.7788 44.5539L72.7879 42.6338C75.2647 41.7154 77.7693 40.7971 80.2738 39.8787C80.3571 39.8494 80.4404 39.8208 80.5233 39.7924C80.9117 39.6594 81.2935 39.5286 81.6375 39.3222C83.6968 38.1534 84.7821 36.3723 84.8099 33.8955L84.8378 33.8677ZM79.9399 42.7451C79.9399 42.7451 79.6894 42.7451 79.5781 42.8008L79.5747 42.8021C78.4071 43.2469 77.2394 43.6917 76.0718 44.1087L76.067 44.1105C73.9814 44.8891 71.8959 45.6677 69.8103 46.4741C68.9478 46.7941 68.0922 47.1141 67.2366 47.434C66.3807 47.7541 65.5248 48.0742 64.662 48.3943L64.6346 48.406L64.579 48.4293L64.5259 48.4514C64.3677 48.5171 64.2004 48.5865 64.0498 48.6726C64.2166 48.8117 64.3838 48.951 64.5507 49.0622C66.6656 50.6485 67.7232 52.8191 67.9736 55.4072C68.0798 56.469 67.8061 57.5055 67.5391 58.5168L67.5005 58.6631C67.4822 58.7271 67.4399 58.7912 67.3982 58.8542C67.313 58.983 67.2306 59.1076 67.3614 59.2197C67.4299 59.2882 67.6483 59.1881 67.832 59.1038C67.8722 59.0854 67.9108 59.0677 67.9458 59.0527C68.0429 59.025 68.1401 58.9833 68.2373 58.9416L68.2383 58.9413C68.3354 58.8996 68.433 58.8578 68.5301 58.8301C69.3928 58.51 70.2486 58.19 71.1043 57.87L71.1081 57.8686C71.9625 57.549 72.817 57.2295 73.6785 56.9099C75.8769 56.075 78.0754 55.2402 80.2738 54.4331C81.4148 54.0157 82.4724 53.5148 83.3073 52.5686C84.6987 51.0102 85.0604 49.2292 84.6708 47.2533C84.3091 45.4723 83.2237 44.1922 81.6931 43.3017C81.1644 42.9955 80.6079 42.7451 79.9121 42.7173L79.9399 42.7451Z" fill="#1C1C1B"/>
<path d="M83.0262 62.5957H83.0333C83.0547 63.1188 83.3001 63.5375 83.67 63.7673C84.0689 64.0152 84.5959 64.0328 85.1033 63.7493L85.1043 63.7487C85.3106 63.6308 85.4859 63.4843 85.6305 63.3397C85.7854 63.1848 85.9443 63.029 86.1046 62.8717C86.4297 62.5528 86.7613 62.2275 87.0788 61.8915C87.196 61.7741 87.3131 61.6278 87.4018 61.48L87.4035 61.4771C87.6749 60.9946 87.7103 60.115 87.0085 59.5963L87.0051 59.5939C86.7663 59.4298 86.4775 59.3216 86.1722 59.3294C85.8644 59.3372 85.5504 59.4627 85.266 59.7471L83.3458 61.6673C83.116 61.8971 82.9389 62.1593 83.0069 62.4992L83.0262 62.5957Z" fill="#1C1C1B"/>
<path d="M79.8053 59.6921C79.5306 59.4173 79.19 59.2926 78.82 59.3234L78.8159 59.3238C78.3039 59.3841 77.8467 59.6871 77.6337 60.2043L77.6328 60.2065C77.4243 60.7428 77.4808 61.2961 77.9093 61.7254C78.5222 62.366 79.135 62.979 79.7757 63.5919C80.2391 64.0544 80.8256 64.046 81.3555 63.8105L81.3578 63.8094C81.8883 63.5597 82.0362 63.0589 82.1204 62.6098L82.1225 62.5988V62.5598C82.1225 62.1627 81.968 61.8548 81.7255 61.6123L79.8053 59.6921Z" fill="#1C1C1B"/>
<path d="M80.964 64.9155C81.3729 65.0034 81.7414 65.2844 81.9654 65.7014C82.1323 65.9906 82.1653 66.2713 82.1063 66.5308C82.0481 66.7869 81.9025 67.0135 81.7271 67.2037C81.1122 67.9024 80.4421 68.5446 79.7762 69.1827L79.7754 69.1835L79.7681 69.1905C79.6533 69.2889 79.5107 69.3504 79.374 69.3972C79.305 69.4208 79.2347 69.4415 79.1679 69.461L79.1561 69.4644C79.0928 69.4829 79.0331 69.5004 78.9765 69.5192L78.9062 69.5427L78.8559 69.4924C78.2552 69.4233 77.8416 69.1232 77.6055 68.6216L77.6044 68.6193C77.4853 68.3513 77.4447 68.0899 77.4918 67.8388C77.5389 67.5876 77.6716 67.358 77.8797 67.1499C78.0813 66.9483 78.2836 66.743 78.4872 66.5363C78.8993 66.118 79.3171 65.6939 79.7462 65.2835C80.1084 64.9364 80.5522 64.827 80.964 64.9155Z" fill="#1C1C1B"/>
<path d="M85.3156 65.2292C85.0409 64.9544 84.7004 64.8297 84.3304 64.8605L84.2866 64.8642L84.2665 64.8843C83.9686 64.869 83.7269 64.961 83.5318 65.1157C83.3278 65.2773 83.1791 65.5036 83.0641 65.7335L83.0615 65.739C82.8474 66.2285 82.9397 66.7819 83.3362 67.179C83.9771 67.8478 84.6181 68.4888 85.2592 69.102L85.2605 69.1032C85.6914 69.5034 86.2152 69.5285 86.7179 69.3511L86.7192 69.3506C87.6438 69.0116 87.8746 67.8484 87.1837 67.0973L87.1821 67.0956C86.7718 66.6667 86.348 66.2492 85.9299 65.8373C85.723 65.6335 85.5174 65.431 85.3156 65.2292Z" fill="#1C1C1B"/>
<path d="M27.9257 10.8904H27.8978V12.0505C27.8978 12.787 27.3157 13.3597 26.5961 13.4497L26.5945 13.4499C26.307 13.4818 26.0061 13.3778 25.7583 13.1939C25.5103 13.0098 25.306 12.7388 25.2143 12.4199C25.1262 12.1548 25.0977 11.8916 25.0977 11.633V9.99116C25.0977 9.69717 25.1564 9.40663 25.2418 9.12181L25.2434 9.11687C25.4873 8.41586 26.1321 8.08321 26.8514 8.2031C27.1388 8.251 27.4065 8.43916 27.6002 8.6813C27.7945 8.9241 27.9257 9.23502 27.9257 9.54589V10.8904Z" fill="#1C1C1B"/>
<path d="M28.9133 5.78003C28.2173 5.78003 27.6908 6.23758 27.598 6.85625C27.5392 7.23864 27.5892 7.58045 27.7521 7.85982C27.9155 8.13981 28.1849 8.34434 28.5413 8.46315L28.5502 8.46539C28.7725 8.52095 29.036 8.58027 29.2751 8.58027H31.056C31.3214 8.58027 31.5562 8.52156 31.7759 8.46664L31.7809 8.46547L31.7854 8.46417C32.1454 8.35917 32.416 8.15356 32.5794 7.86964C32.7419 7.58709 32.7919 7.23826 32.7332 6.85603C32.6403 6.23746 32.1138 5.78003 31.4178 5.78003H28.9133Z" fill="#1C1C1B"/>
</svg>
