<svg width="172" height="44" fill="none" xmlns="http://www.w3.org/2000/svg">
  <g clip-path="url(#a)">
    <path d="M62.3076 18.3478c-.5853-.2909-1.2279-.4747-1.8998-.5437-.0247-.0027-.0503-.0044-.076-.0071-.0725-.0062-.1441-.0132-.2174-.0168-.0796-.0044-.1609-.0062-.2414-.0079-.023 0-.0451-.0018-.068-.0018h-.0151c-1.7061 0-3.261.7381-4.3201 1.9289-1.059-1.1908-2.6139-1.9289-4.3201-1.9289H51.1347c-.0398 0-.0795.0027-.1193.0035-.0584.0018-.1167.0018-.1742.0053-.091.0045-.1803.0124-.2705.0204-.0053 0-.0106 0-.0159.0017-.6754.0672-1.3198.2502-1.9085.5402-.0053.0026-.0115.0053-.0168.0079-.0177.0089-.0372.0168-.0548.0257 0 .0008-.0009.0017-.0018.0035-1.9041.9485-3.2292 2.9101-3.2478 5.1714h-.0009v7.5811h3.0109V23.596c0-1.5558 1.2668-2.8252 2.8067-2.8287 1.5549.0044 2.8217 1.2729 2.8217 2.8287v7.5352h3.0109V23.596c0-1.5558 1.2668-2.8252 2.8217-2.8287 1.5399.0044 2.8067 1.2729 2.8067 2.8287v7.5352h3.0109V23.596c0-2.3045-1.3587-4.3041-3.3079-5.2482h.0018ZM120.965 12.8679h-2.996v18.2625h2.996V12.8679ZM98.627 18.3469c-.5852-.2899-1.2279-.4738-1.8988-.5437-.0248-.0026-.0504-.0044-.0761-.007-.0725-.0062-.1441-.0133-.2174-.0168-.0796-.0044-.1609-.0062-.2414-.008-.0229 0-.045-.0017-.068-.0017h-.0151c-1.7061 0-3.261.7381-4.32 1.9288-1.0591-1.1907-2.614-1.9288-4.3201-1.9288h-.0151c-.0397 0-.0795.0026-.1193.0035-.0584.0018-.1167.0018-.1742.0053-.091.0044-.1803.0124-.2705.0203-.0053 0-.0106 0-.0159.0018-.6753.0672-1.3198.2502-1.9085.5401-.0053.0027-.0115.0053-.0168.008-.0177.0088-.0371.0168-.0548.0256 0 .0009-.0009.0018-.0018.0035-1.9041.9486-3.2292 2.9102-3.2478 5.1714h-.0009v7.5812h3.0109v-7.5352c0-1.5558 1.2668-2.8253 2.8067-2.8288 1.555.0044 2.8217 1.273 2.8217 2.8288v7.5352h3.0109v-7.5352c0-1.5558 1.2668-2.8253 2.8217-2.8288 1.54.0044 2.8067 1.273 2.8067 2.8288v7.5352h3.0109v-7.5352c0-2.3046-1.36-4.3051-3.3088-5.2483h.0018ZM153.979 18.3469c-.586-.2899-1.228-.4738-1.899-.5437-.025-.0026-.051-.0044-.076-.007-.073-.0062-.144-.0133-.218-.0168-.079-.0044-.161-.0062-.241-.008-.023 0-.045-.0017-.068-.0017h-.015c-1.706 0-3.261.7381-4.32 1.9288-1.059-1.1907-2.614-1.9288-4.32-1.9288h-.015c-.04 0-.08.0026-.12.0035-.058.0018-.116.0018-.174.0053-.091.0044-.18.0124-.27.0203-.006 0-.011 0-.016.0018-.676.0672-1.32.2502-1.909.5401-.005.0027-.011.0053-.017.008-.017.0088-.037.0168-.054.0256 0 .0009-.001.0018-.002.0035-1.904.9486-3.229 2.9102-3.248 5.1714h-.001v7.5812h3.011v-7.5352c0-1.5558 1.267-2.8253 2.807-2.8288 1.555.0044 2.821 1.273 2.821 2.8288v7.5352h3.011v-7.5352c0-1.5558 1.267-2.8253 2.822-2.8288 1.54.0044 2.807 1.273 2.807 2.8288v7.5352h3.011v-7.5352c0-2.3046-1.36-4.3051-3.309-5.2483h.002ZM113.648 18.8941l-.011-.0195c-1.059-.6957-2.315-1.1049-3.676-1.1049-1.361 0-2.633.4084-3.692 1.1049-1.8 1.1952-2.996 3.2532-2.996 5.5683 0 2.3152 1.196 4.3723 2.996 5.5683 1.059.7108 2.331 1.1201 3.692 1.1201 1.035 0 2.008-.237 2.882-.6622.276-.1317.542-.282.795-.4481v1.1103h2.996s.017-6.5248.017-6.6769c0-2.3213-1.195-4.3678-3.002-5.5594l-.001-.0009Zm-3.687 1.8714c2.028 0 3.676 1.6496 3.676 3.6766s-1.649 3.6915-3.676 3.6915-3.692-1.6495-3.692-3.6915c0-2.0421 1.65-3.6766 3.692-3.6766ZM77.3238 18.8941l-.0106-.0195c-1.059-.6957-2.3152-1.1049-3.6765-1.1049-1.3614 0-2.6326.4084-3.6916 1.1049-1.8007 1.1952-2.9959 3.2532-2.9959 5.5683 0 2.3152 1.1952 4.3723 2.9959 5.5683 1.059.7108 2.3302 1.1201 3.6916 1.1201 1.0351 0 2.0093-.237 2.8818-.6622.2758-.1308.541-.282.7947-.4481v1.1103h2.9959s.0167-6.5257.0167-6.6769c0-2.3213-1.1951-4.3678-3.002-5.5594v-.0009Zm-3.6871 1.8714c2.0278 0 3.6765 1.6496 3.6765 3.6766s-1.6495 3.6915-3.6765 3.6915c-2.0271 0-3.6916-1.6495-3.6916-3.6915 0-2.0421 1.6495-3.6766 3.6916-3.6766ZM132.675 18.8941l-.01-.0195c-1.059-.6957-2.315-1.1049-3.677-1.1049-1.361 0-2.632.4084-3.691 1.1049-1.801 1.1952-2.996 3.2532-2.996 5.5683 0 2.3152 1.195 4.3723 2.996 5.5683 1.059.7108 2.33 1.1201 3.691 1.1201 1.035 0 2.01-.237 2.882-.6622.276-.1308.541-.2811.795-.4481v1.1103h2.996s.016-6.5257.016-6.6769c0-2.3213-1.195-4.3678-3.002-5.5594v-.0009Zm-3.687 1.8714c2.028 0 3.677 1.6496 3.677 3.6766s-1.65 3.6915-3.677 3.6915-3.691-1.6495-3.691-3.6915c0-2.0421 1.649-3.6766 3.691-3.6766ZM172.002 24.4535c0-2.3213-1.196-4.3678-3.002-5.5594l-.011-.0195c-1.059-.6957-2.315-1.1049-3.677-1.1049-1.361 0-2.632.4084-3.691 1.1049-1.801 1.1952-2.996 3.2532-2.996 5.5683 0 2.3152 1.195 4.3723 2.996 5.5683 1.059.7108 2.33 1.1201 3.691 1.1201 1.036 0 2.01-.237 2.882-.6622.276-.1308.541-.2811.795-.4481v1.1103h2.996s.017-4.557.017-6.6769v-.0009Zm-6.69-3.688c2.028 0 3.677 1.6496 3.677 3.6766s-1.65 3.6915-3.677 3.6915-3.691-1.6495-3.691-3.6915c0-2.0421 1.649-3.6766 3.691-3.6766Z" fill="#1C1C1B"/>
    <path d="M38.6992 31.9587c0-.0053.0018-.0115.0027-.0195-.0009.0071-.0018.0133-.0027.0195ZM32.5508 36.277c0-.0053.0017-.0115.0026-.0194-.0009.007-.0017.0132-.0026.0194Z" fill="#D27884"/>
    <path d="M22.8116 17.089c0 .8982-.7285 1.6239-1.6239 1.6239-.8955 0-1.6213-.7257-1.6213-1.6239 0-.8981.7258-1.6212 1.6213-1.6212.8954 0 1.6239.7257 1.6239 1.6212Z" fill="#1C1C1B"/>
    <path d="M35.6339 11.5888c.4013-1.2446.5392-2.58213.3721-3.89486-.0044-.02917-.0097-.04862-.015-.07868 0-.02475 0-.04862-.0053-.07867-.1176-.82831-.4066-1.69993-1.0387-2.28779-.7346-.67625-1.7538-.84775-2.675-.47028-.9405.38719-1.5673 1.17129-1.9447 2.08711-1.014-.62233-2.0872-1.15626-3.209-1.59207.465-.46057.8619-.97947 1.0971-1.6018.2891-.75936.3138-1.70523-.1273-2.41508C27.1228-.286779 25.0303.0756589 23.669.80142c-1.3331.71073-2.3912 1.8617-3.1797 3.14084-.1813-.00531-.3625-.00531-.549-.00531C8.94604 3.93607 0 12.8821 0 23.8773c0 10.9951 8.94604 19.9456 19.9403 19.9456 10.9943 0 19.9456-8.9461 19.9456-19.9456 0-4.6304-1.5921-8.8975-4.2529-12.2876l.0009-.0009Zm-5.9334-2.03847c-.0292.13702-.0539.27404-.0884.41636-.1715.70101-.3722 1.55321-.823 2.17021-1.4056-1.3622-3.185-2.33198-5.0954-2.76779.1468-.63206.4412-1.22522.8381-1.7344.1025-.13702.221-.26432.3332-.39161 1.7442.51449 3.3654 1.30301 4.8355 2.30723ZM10.6318 28.0258c-.152 2.1703-.3032 4.3458-.4552 6.5213-.0734 1.166-.1662 2.332-.23076 3.498-4.44385-3.1453-7.35396-8.3193-7.35396-14.1696 0-9.343 7.42292-16.97628 16.68282-17.32899-.4562 1.30301-.7249 2.68028-.7789 4.05669-.769.6418-1.5381 1.2835-2.3072 1.9253-1.4206-.1273-2.8562-.2007-4.2768-.0831-1.7688.1423-3.52798.617-4.7921 1.9404-1.23936 1.2933-1.61152 3.0913-1.22521 4.8213.34741 1.5382 1.25439 2.8659 2.43541 3.8852.00972.0097.01944.0194.02917.0291.02475.0195.04862.0389.06807.0593.76907.6471 1.58236 1.2393 2.42036 1.7936-.0734 1.0192-.1423 2.0332-.2157 3.0524v-.0009ZM8.18669 16.1936c-.59316.8963-.9945 1.9403-1.11207 2.9932-.09282-.3474-.15735-.7108-.17149-1.0926-.0442-.8823.16707-1.7247.66653-2.4496.06895-.0981.13702-.1909.21569-.2793.0884.2987.22542.5781.40134.8283Zm22.27761.0344c-.0053.7399-.0097 1.4798-.0097 2.2144-.0098 1.7786-.0195 3.5519-.0248 5.3261-.0097 2.1464-.0195 4.2971-.0292 6.4426-.0097 1.8573-.015 3.7137-.0247 5.5709 0 .6126-.0053 1.2252-.0053 1.837 0 .0389-.0044.0787-.0044.1175-2.9057 2.195-6.516 3.4936-10.4259 3.4936-3.2337 0-6.2666-.892-8.8585-2.4451.0787-1.1413.1229-2.2931.2006-3.4397.1468-2.1905.2988-4.3899.4562-6.5804.0928-1.3375.2351-2.6847.2793-4.0222.0053-.0248.0053-.0442.0053-.0637.0195-.2059-.1228-.3969-.2846-.4994-.8716-.5631-1.79806-1.1855-2.60162-1.9103-.01944-.0151-.03889-.0345-.05922-.054h-.00442c-1.37639-1.4939-.98478-3.6403-.00973-5.2376.77438.4261 1.75919.4455 2.57689.1228.4994-.1962.9556-.48 1.318-.8822.2007-.2254.2404-.5976 0-.823-.2201-.1962-.6073-.2396-.8186 0-.0787.0928-.1662.1768-.2546.2546-.5781.495-1.44.6471-2.15604.3775-.62233-.2352-.89637-.9061-.9114-1.5382.2157-.137.43581-.2546.66653-.3527.86721-.3872 1.85201-.5048 2.79781-.5587.5879-.0345 1.1855-.0389 1.7786-.0247.397.0097.7992.0291 1.1961.0583.328.0195.6515.0486.9795.0787.2298.0194.4013-.0442.5834-.191.3032-.2501.6073-.4994.9061-.7549.4217-.3527.8477-.7054 1.2685-1.0581.1326-.1123.2643-.2202.3969-.3333.206-.1715.2502-.4013.2599-.6665.054-2.02881.6418-4.08145 1.6513-5.84502.877-1.52401 2.2242-3.01796 3.9833-3.43963.6365-.14674 1.4206-.15646 1.8034.43581.4163.64709.0928 1.54346-.343 2.12601-.5976.80798-1.4993 1.34279-2.2392 2.00402-.7399.67096-1.3472 1.48423-1.7149 2.41508-.1866.46498-.2794.94057-.3333 1.44003-.0247.2298.1963.5145.4217.5534 2.1216.3721 4.0522 1.4259 5.5073 3.0029.2298.2502.5834.191.8185 0 .6516-.5198.9795-1.3472 1.235-2.1119.3085-.9158.4606-1.86165.6374-2.80752.1414-.79383.3818-1.62213.9794-2.19496.5048-.48532 1.2588-.71516 1.8661-.35272.2944.1768.4853.44111.6418.77438.1468.29349.2352.70101.2891 1.06787.1962 1.6071-.069 3.28755-.823 4.73295-.7302 1.3914-1.8714 2.5335-3.2832 3.2389-.1812.0884-.2837.3085-.2837.4995l-.0009.0026Zm1.0678 20.5529c.0045-1.4603.0098-2.9198.0151-4.3802.0097-2.1949.0194-4.3899.0291-6.5848.0098-2.0235.0195-4.0523.0292-6.0757.0053-1.0538.0097-2.1066.015-3.1603 1.0732-.5976 1.9846-1.4259 2.6998-2.401 1.8714 2.7731 2.9737 6.1049 2.9737 9.6957 0 5.1201-2.2294 9.7257-5.7619 12.9055v.0008Z" fill="#1C1C1B"/>
    <path d="M19.2765 6.54736c-.4561 1.30301-.7249 2.68028-.7788 4.05664-.7691.6418-1.5381 1.2836-2.3072 1.9254-1.4206-.1273-2.8562-.2007-4.2768-.0831-1.7689.1423-3.52801.617-4.79212 1.9403-1.23936 1.2933-1.61153 3.0914-1.22522 4.8214.34741 1.5381 1.25439 2.8659 2.43541 3.8851.00972.0097.01945.0195.02917.0292.02475.0194.04862.0389.06807.0592.76907.6471 1.58239 1.2394 2.42039 1.7936-.0734 1.0193-.1423 2.0332-.2157 3.0525-.1521 2.1702-.3032 4.3457-.4553 6.5212-.0733 1.166-.1662 2.332-.23069 3.498-4.44384-3.1453-7.35396-8.3193-7.35396-14.1696 0-9.3429 7.42295-16.97624 16.68275-17.32895v-.00089ZM29.7021 9.55113c-.0292.13702-.054.27404-.0884.41636-.1715.70101-.3722 1.55321-.823 2.17021-1.4056-1.3622-3.1851-2.33198-5.0954-2.76779.1468-.63206.4411-1.22522.838-1.7344.1026-.13702.221-.26432.3333-.39161 1.7441.51448 3.3654 1.30301 4.8355 2.30723ZM37.2931 23.8772c0 5.1201-2.2294 9.7257-5.7619 12.9055.0045-1.4604.0098-2.9199.0151-4.3802.0097-2.195.0194-4.39.0291-6.5849.0098-2.0235.0195-4.0522.0292-6.0757.0053-1.0537.0097-2.1066.015-3.1603 1.0732-.5976 1.9846-1.4259 2.6998-2.4009 1.8714 2.7731 2.9737 6.1048 2.9737 9.6956v.0009Z" fill="#8ACBE5"/>
    <path d="M8.18807 16.1961c-.59316.8955-.99361 1.9395-1.11207 2.9914-.09547-.3465-.15558-.7098-.17238-1.0935-.04155-.8795.16531-1.7211.66742-2.4469.06542-.0981.13702-.1909.21393-.2793.0884.2953.22542.5772.40222.8283h.00088ZM15.1012 17.3056c-.3254 2.1074-1.7238 4.1053-3.7402 4.801-.7099.2439-1.48426.2908-2.22593.1626-.02122-.0159-.03978-.0327-.05834-.0513 0 0 0-.0026-.00266-.0026-1.37726-1.4931-.9883-3.6377-.01414-5.2359.77703.4252 1.76267.4446 2.57947.1211.4977-.1954.9556-.4791 1.3163-.884.1998-.2254.2396-.5976 0-.8186-.221-.1998-.6047-.2422-.8186 0-.0787.0884-.1626.1742-.2537.2511-.5772.4977-1.4418.6488-2.1534.3792-.62322-.2351-.89814-.9096-.9114-1.5399.21393-.1353.43758-.2537.663-.3536.8698-.3863 1.8564-.5048 2.7978-.5578.5906-.0327 1.1864-.0371 1.7795-.0212.9768.8725 1.2518 2.4115 1.0423 3.749v.0009Z" fill="#D0EAF5"/>
    <path d="M34.8575 7.75491c-.0584-.36509-.1468-.76996-.2909-1.06787-.1582-.33238-.3491-.59581-.6444-.77261-.6047-.36244-1.3587-.1326-1.8635.35095-.5975.57459-.8371 1.4029-.9812 2.19584-.1741.94676-.3306 1.89088-.6347 2.80758-.2555.7655-.5861 1.5956-1.235 2.1145-.2351.1883-.5887.2493-.8185 0-1.456-1.5815-3.3866-2.6308-5.5056-3.0029-.228-.0398-.449-.328-.4234-.55782.0539-.49504.1485-.97417.335-1.44003.3678-.92997.9724-1.74236 1.7141-2.41243.7373-.66565 1.6372-1.19516 2.2374-2.0049.4376-.58609.7585-1.48158.3421-2.12601-.3819-.59316-1.1651-.58609-1.8007-.43493-1.7609.42078-3.1099 1.91209-3.9842 3.43786-1.0121 1.76092-1.5956 3.81445-1.6539 5.84496-.0071.2652-.0513.4951-.2581.6674-.1326.1114-.2652.221-.3952.3307-.4234.3536-.8469.7072-1.2703 1.0608-.2997.251-.6002.5047-.9052.7531-.1812.1485-.3563.2113-.5861.191-.3253-.0301-.6515-.0584-.9795-.0787-.3951-.0283-.7956-.0469-1.1951-.0557.9768.8725 1.2517 2.4115 1.0422 3.749-.3253 2.1075-1.7238 4.1053-3.7402 4.801-.7098.244-1.48421.2908-2.22588.1627.80444.7284 1.72818 1.3489 2.60248 1.912.1627.1044.3023.2935.2864.5004 0 .0185-.0026.0398-.0044.0601-.0469 1.3419-.1909 2.6865-.2838 4.0239-.1538 2.1932-.3067 4.3891-.4535 6.5823-.0769 1.1448-.1228 2.2957-.2024 3.4405 2.5954 1.5488 5.624 2.4425 8.8621 2.4425 3.9099 0 7.5201-1.3004 10.4249-3.4909 0-.0398.0027-.0787.0027-.1211.0026-.6118.0044-1.2235.0071-1.8352.0097-1.8582.0159-3.7146.0256-5.571.0097-2.1472.0186-4.2962.0283-6.4425.0071-1.7751.0159-3.5493.023-5.3243.0026-.7373.007-1.4772.0097-2.2171 0-.1927.107-.4093.2864-.4977 1.4091-.7072 2.5512-1.8466 3.2823-3.2425.7531-1.4444 1.0183-3.12137.8256-4.73289h-.0017ZM21.19 18.712c-.8955 0-1.6212-.7257-1.6212-1.6239 0-.8981.7257-1.6212 1.6212-1.6212s1.6239.7258 1.6239 1.6212c0 .8955-.7284 1.6239-1.6239 1.6239Z" fill="#fff"/>
  </g>
  <defs>
    <clipPath id="a">
      <path fill="#fff" transform="translate(0 .177246)" d="M0 0h172v43.6455H0z"/>
    </clipPath>
  </defs>
</svg>