<svg width="172" height="44" fill="none" xmlns="http://www.w3.org/2000/svg">
  <path d="M32.5039 36.127c0-.0053.0018-.0115.0027-.0195-.0009.0071-.0018.0133-.0027.0195ZM38.0117 33.2752c0-.0053.0018-.0106.0027-.0168 0 .0053-.0018.0106-.0027.0168ZM38 33.3477c.0009-.0062.0018-.0133.0035-.0221-.0008.0079-.0026.015-.0035.0221Z" fill="#D27884"/>
  <path d="M8.14712 16.0472c-.5958.8981-.99802 1.9386-1.11382 2.9923-.09724-.3474-.15823-.7143-.1768-1.0988-.05038-1.0378.2873-1.9651.89018-2.697.08928.2872.2263.5586.40044.8035ZM15.0597 17.1562c-.3288 2.1074-1.7255 4.107-3.7401 4.7991-.7063.2423-1.47804.29-2.21528.1636-.03182-.0265-.06276-.0531-.09193-.0813-1.34897-1.4966-.96178-3.6111.00795-5.205.77703.4244 1.76266.4429 2.57596.1211.5003-.1971.9591-.4817 1.3171-.8848.2007-.2263.2396-.5976 0-.8195-.2183-.1998-.6029-.2395-.8194 0-.0787.0893-.1609.1742-.2502.2528-.5772.4977-1.4436.648-2.15782.3793-.61879-.2343-.89282-.9114-.90874-1.5408.23161-.1476.47913-.2794.7399-.3872.89016-.3739 1.88906-.4844 2.84466-.5295.5481-.0265 1.1015-.0318 1.6513-.0186.9777.8716 1.2535 2.416 1.0458 3.7508h.0008Z" fill="#D0EAF5"/>
  <path d="M22.7668 16.9397c0 .8981-.7275 1.623-1.623 1.623s-1.6204-.724-1.6204-1.623.724-1.6204 1.6204-1.6204c.8963 0 1.623.724 1.623 1.6204Z" fill="#1C1C1B"/>
  <path d="M39.8356 23.641c0-.0318 0-.0654-.0027-.0972.0027-.0106.0027-.0239 0-.0345.0027-.0026 0-.0053 0-.0079 0-.0707-.0026-.1423-.0026-.2131-.0027-.0839-.0027-.1688-.0053-.2528-.0027-.0026-.0027-.0053-.0027-.0106v-.0451c-.0026-.0583-.0026-.1158-.0053-.1741-.0053-.1291-.0132-.2581-.0238-.3846-.0053-.0892-.0106-.1768-.0186-.266-.0053-.084-.0106-.1689-.0186-.2529-.0106-.1078-.0238-.2103-.0344-.3164v-.0027c0-.0159-.0027-.0318-.0053-.0451-.0027-.0291-.0054-.0557-.008-.0839-.0027-.0345-.008-.0708-.0133-.1052-.0053-.0708-.0159-.1424-.0265-.2131-.0026-.0451-.0106-.0866-.0159-.129-.0159-.0973-.0292-.1954-.0424-.2926-.0027 0-.0027-.0027-.0027-.0027-.0053-.0504-.0159-.0999-.0212-.1503-.0053-.0397-.0133-.076-.0212-.1131v-.0027c-.0159-.1078-.0371-.2157-.0557-.3244-.5923-3.2345-1.9704-6.1985-3.9276-8.6878-.2899-.3713-.5958-.732-.9113-1.0829.0185-.0787.0344-.1556.0477-.2343.0079-.0344.0133-.068.0186-.1025.0053-.02917.0106-.05569.0159-.08398.0159-.08928.0291-.17945.0397-.26873.0133-.1105.0266-.221.0372-.33149.0106-.09989.0159-.20244.0212-.30321l.0026-.04243v-.02918c.0053-.09989.008-.20066.008-.30232 0-.02563.0018-.05127.0018-.07691 0-.09458-.0027-.19271-.0053-.28729-.0027-.11315-.0106-.2263-.0186-.33945v-.02122c-.0106-.11315-.0212-.2263-.0345-.33945-.1237-.77702-.4031-1.71493-1.2411-1.9598-.9724-.28464-1.8228.61084-2.1781 1.41173-.0451.10254-.0867.20774-.1238.31647-.3218-.2263-.648-.44023-.9821-.64531-1.0113-.62145-2.0836-1.15361-3.2062-1.58588-.4031-.15823-.8142-.3032-1.2305-.43227.0654-.05569.129-.11049.1927-.16618.0106-.01061.0212-.01857.0291-.02652.0186-.01857.0372-.03713.0557-.05304.1105-.09989.2157-.20509.3192-.31647.0265-.02917.053-.05834.0786-.08928.0531-.05835.1026-.11846.1503-.18211.4402-.56928.8089-1.50454.3686-2.17549-.4084-.62144-1.2747-.56928-1.9076-.40044-.1742.04773-.3448.10519-.5136.17149-.0654.02652-.1291.05569-.1954.08398-.0504.02122-.0972.04508-.1476.07072-.008.00265-.0159.00795-.0239.01061-.0999.05038-.1971.10254-.2952.16088-.1636.09459-.3209.19978-.4738.31117-.0504.03712-.0999.07602-.1503.11315-.1503.1158-.2953.23956-.4349.37127-.0451.04243-.092.08663-.1371.13171-.0919.08929-.1794.18211-.266.27669-.0867.09194-.1715.19006-.2528.2873-.0557.06541-.1105.13171-.1636.19978-.0477.06099-.0946.12111-.1397.18475-.0556.07072-.1078.14498-.1608.21835-.4403-.04243-.8849-.07072-1.3331-.08133-.1821-.0053-.3633-.00796-.5481-.00796-2.3682 0-4.6409.41636-6.751 1.17747-.0999.03713-.1998.07868-.3032.11581-.1476.05746-.2979.11315-.4473.17149-.221.09193-.4455.18741-.6639.2873-.0495.02121-.0945.04243-.1423.06541-.1105.04774-.2183.09989-.3271.15293-.0919.04508-.1847.09194-.2766.13967-.0557.02652-.1105.05304-.1662.08133-.0133.00795-.0265.01591-.0425.02121-.0238.01326-.0477.02387-.0707.03713-.0972.05039-.1953.1052-.2926.16089-.0557.02917-.1105.05834-.1688.08928-.1423.07867-.28201.16088-.42168.24221-.25282.14763-.50299.30056-.74786.45791h-.00265v.00265c-.10519.06807-.21039.13436-.31381.20243-.10255.07072-.20509.14232-.30851.21569h-.00266c-.06806.05039-.13701.09989-.20508.15293-.03182.02122-.06542.04509-.09724.06807-.05746.04243-.11315.08663-.17149.12906-.12641.09459-.25548.19006-.38189.2873-.06276.05039-.12375.09989-.1874.15293-.02652.02121-.05304.04243-.08133.06365-.15823.12906-.31381.25812-.46674.39514-.02122.02121-.04509.03978-.06807.06099-.05746.05039-.1158.09989-.17415.15028-.17679.15823-.3474.32442-.52155.48973-.06099.06099-.12641.1158-.18917.1768-.1158.11315-.23161.22895-.3421.34475-.11581.11846-.2263.23425-.3368.35535-.07072.0787-.14233.1582-.21304.2369-.08663.0999-.1768.1972-.26078.2979-.08663.1026-.17415.2025-.25547.3059-.02917.0371-.061.076-.08928.1131 0 0-.00089.0009-.00266.0027-.02121.0265-.03978.053-.06099.076-.00531.008-.01061.0133-.01591.0186-.03183.0398-.06277.0786-.09459.1184-.02917.0398-.061.0814-.09194.1185 0 0-.00088.0009-.00265.0026-.01856.0266-.03978.0531-.06099.0787-.00265.0053-.00796.0106-.01326.0159-.03183.0425-.06277.0813-.09459.1238-.10254.1343-.19978.2687-.30055.4057-.00266.0053-.00796.0106-.01061.0159-.09724.1371-.19448.2794-.28995.4191 0 0-.00177.0017-.0053.0053l-.00266.0053c-.00265.0026-.0053.0053-.0053.0079-.07602.1105-.15293.2237-.22365.3395-.05304.0786-.10519.1609-.15293.2422-.10519.1635-.20597.3288-.30321.4977-.07337.1264-.14497.2528-.21569.3792-.07337.1291-.14497.2581-.21039.3872-.03182.0654-.06541.1317-.09724.1953 0 0-.00088.0009-.00265.0027-.03713.0654-.06806.1317-.10254.1971v.0027c-.07426.1476-.14497.2926-.21304.4402-.14232.2979-.27404.5976-.3978.9034-.05745.1503-.1211.3032-.17944.4562 0 0-.00089.0009-.00266.0026 0 0 0 .0053-.00265.008-.07602.2024-.15293.4084-.22365.6135-.070716.2104-.142319.4243-.207734.64-.015912.061-.037127.1237-.053039.1847-.021216.0637-.037128.1238-.055691.1874-.018564.0761-.042432.1556-.060996.2316 0 .0027-.002651.0027-.002651.0027v.0026c-.023868.0761-.042432.153-.063648.2316-.034475.1344-.068067.2688-.09989.4058-.029172.1238-.055691.2449-.081327.3713l-.002652.0026c-.023867.1238-.050387.2502-.076023.3766-.018563.0972-.039779.1971-.055691.2953v.0026c-.023868.1185-.042431.2343-.060995.3527-.023868.1344-.042431.2687-.057459.4031H.142812v.0027c-.021216.1343-.037128.266-.0530393.4031-.0159118.1211-.0291716.2422-.0397794.3633-.0132598.1317-.0212157.2608-.0318236.3925l-.0026519.0026v.0027c-.01060787.1317-.02121571.2634-.0291716.3951-.0053039.061-.0079559.1238-.0106078.1874-.002652.0265-.002652.0557-.002652.0813-.0053039.0761-.0079559.153-.0106078.229-.002652.0345-.002652.0681-.002652.1025-.002652.0655-.0053039.1344-.0053039.1998 0 .1344-.0053039.2688-.0053039.4031 0 6.4567 3.0877712 12.2043 7.8604112 15.8499.12641.0972.25547.1927.38454.2873.35005.2555.71072.4977 1.07758.7293 3.07715 1.9465 6.72005 3.0772 10.62105 3.0772 2.5786 0 5.045-.4924 7.3044-1.3861.2794-.1105.5534-.229.8248-.3501.1715-.076.3421-.1529.5083-.2343.137-.0654.2714-.1343.4057-.2024.4588-.2342.9088-.4844 1.3463-.7531.1185-.0708.2343-.145.3501-.2184.0893-.0583.1795-.1184.2687-.1768.1768-.1184.3527-.2395.5269-.3633.1317-.0919.2581-.1874.3872-.282h.0026c.2529-.1927.5057-.3898.7505-.5923.4898-.4057.9645-.8353 1.4144-1.2879h.0027c.3111-.3112.609-.6294.9008-.9618.0318-.0345.0609-.0707.0919-.1052.0398-.0477.0813-.0946.1211-.1423.0707-.084.1397-.1689.2104-.2529.1131-.1396.2236-.2793.3341-.4216.0239-.0318.0504-.0637.0734-.0946.2634-.3394.5162-.693.7558-1.0537.0053-.0053.0106-.0133.0133-.0212.0636-.092.1237-.1848.1821-.2767.0212-.0292.0397-.061.0574-.092.0787-.1237.1583-.2475.2343-.3739.0212-.0318.0398-.0636.0583-.0946.0265-.045.0531-.0892.0787-.1317.0292-.053.061-.0999.0893-.1529 0-.0027.0026-.0027.0026-.0027.1185-.2077.2343-.419.3448-.632.1131-.213.2236-.4296.3262-.6453 0-.0027.0026-.0027.0026-.0027.0345-.0707.0681-.1423.0999-.2157v-.0026c.0345-.0743.0681-.1476.1026-.221h.0026c.0318-.0707.0628-.145.0973-.2184.0477-.1105.0945-.221.1396-.3341.0478-.1105.0946-.2237.1397-.3368.1185-.3032.2289-.6082.3368-.9167.0477-.1423.0946-.282.1397-.427.0318-.0999.061-.1997.0866-.3005.0424-.1317.0787-.2661.1158-.4005h.0027c.0371-.1343.0707-.2687.1051-.4057.0292-.1158.0584-.2369.0867-.3554.0318-.1396.0627-.2846.0946-.4269.0212-.1079.0424-.2184.0636-.3289v-.0026c.008-.0398.0159-.0814.0239-.1238.0026 0 .0026-.0027.0026-.0027.0212-.1131.0398-.2236.0575-.3376.0186-.1185.0398-.2396.0583-.358.0027-.0345.008-.0655.0106-.0999.0504-.3448.0893-.6957.1211-1.0458.0266-.2926.0451-.5878.0575-.8822.0159-.2953.0212-.5923.0212-.8928 0-.0292 0-.0584-.0026-.0867l.0097-.0009ZM18.9302 11.5525c-.4164.3474-.8301.6957-1.2456 1.0405-.3032.2528-.6055.5109-.9113.7611-.4031.3271-.9795.1503-1.4595.1158-.4323-.0318-.8663-.0557-1.3012-.0654.9777.8716 1.2543 2.4159 1.0457 3.7507-.3288 2.1075-1.7255 4.107-3.741 4.7992-.7063.2422-1.47804.2899-2.21528.1635.79824.724 1.71758 1.3463 2.59188 1.9121.1635.1052.3005.2926.2846.5003 0 .0213-.0026.0425-.0026.0637-.0292 1.3304-.1892 2.6687-.2847 3.993-.1529 2.1887-.3058 4.3757-.4508 6.5644-.0787 1.1589-.1158 2.3258-.1998 3.4874-.0946-.0531-.1901-.1105-.2846-.1689-.0319-.0185-.0628-.0398-.0946-.061-.0637-.0398-.1264-.0786-.1874-.1184-.0946-.061-.1874-.1264-.282-.1901-.0451-.0318-.092-.0636-.1397-.0946-.0026 0-.0053-.0026-.008-.0053-.0079-.0053-.0132-.0079-.0212-.0132-.03974-.0265-.08129-.0584-.12107-.0867h-.00265v-.0026c-.1105-.0734-.2157-.1529-.32177-.2343-.00796-.0053-.01327-.0106-.02122-.0159-.02917-.0159-.05304-.0371-.08133-.0583-.03447-.0239-.06895-.0504-.09989-.0787-.07425-.0557-.15028-.1158-.22365-.1741 0 0-.00176-.0009-.0053-.0027-.00531-.0053-.01326-.0106-.01856-.0159-.00266-.0027-.00796-.0053-.01061-.008-.01061-.0106-.02122-.0185-.03183-.0265h-.00265c-.01856-.0186-.03713-.0318-.05569-.0477-.01061-.0053-.02122-.0159-.03182-.0239l-.03978-.0318c-.02122-.0186-.04509-.0371-.06807-.0557-.06099-.0504-.12111-.1025-.1821-.1529-.0053-.0027-.00796-.008-.01326-.0106-.04243-.0372-.08663-.0734-.13171-.1105h-.00266c-.00265-.0053-.0053-.008-.00795-.0106-.02387-.0186-.04774-.0398-.07072-.0584-.04243-.0371-.08398-.0734-.12376-.1105-.03978-.0345-.08133-.0707-.12111-.1078-.10254-.0946-.20596-.1901-.30585-.2847-.00531-.0106-.01061-.0132-.01857-.0212-.02121-.0212-.04243-.0424-.06276-.061 0-.0026-.00265-.0026-.00531-.0053-.03182-.0292-.06364-.061-.09193-.0919-.06099-.0584-.11845-.1185-.17945-.1795-.03713-.0371-.07425-.076-.11315-.1131-.01856-.0186-.03713-.0372-.05569-.0557-.06365-.0654-.12376-.1317-.18475-.1971-.0557-.0557-.10785-.1132-.15824-.1715l-.01856-.0186c-.00531-.008-.01061-.0159-.01857-.0239-.0053-.0053-.0106-.0132-.01591-.0185-.03712-.0398-.07425-.0787-.10784-.1185-.02122-.0212-.03978-.0451-.05746-.0681-.00531-.0053-.01061-.0079-.01326-.0132-.04774-.0531-.09194-.1026-.13702-.1556-.01591-.0186-.03182-.0371-.04774-.0557 0-.0026-.00265-.0079-.00795-.0106v-.0027c-.02652-.0291-.04774-.053-.06807-.0786-.0053-.0053-.00795-.0106-.01326-.0159-.00795-.008-.01326-.0159-.01856-.0213-.02122-.0265-.04243-.053-.06365-.0786-.0053-.0053-.00796-.0133-.01591-.0212h-.00265l-.00265-.0054s-.00266-.0026-.00531-.0053c-.01061-.0132-.02121-.0291-.03447-.0424-.02918-.0371-.05835-.0707-.08663-.1078-.03713-.0451-.07426-.092-.1105-.1397-.00531-.0053-.00796-.0106-.01061-.0159-.05304-.0637-.10254-.1291-.15293-.1954-.01856-.0238-.03978-.0504-.05304-.0733-.00796-.0106-.01591-.0213-.02387-.0345-.00265-.0027-.00795-.008-.01061-.0133 0 0-.00176-.0017-.0053-.0053-.03448-.0424-.06541-.084-.09459-.129v-.0027s-.0053-.008-.00795-.0106c-.00796-.0106-.01857-.0239-.02387-.0345-.01061-.0106-.01856-.0238-.02652-.0345-.01856-.0265-.03713-.053-.05834-.0813-.00531-.0079-.01061-.0132-.01591-.0212-.03713-.0451-.06542-.0919-.09459-.137-.0053-.0053-.00796-.008-.01061-.0133-.0053-.0079-.01061-.0132-.01591-.0212 0 0-.00088-.0018-.00265-.0053l-.00265-.0026c-.02387-.0345-.04509-.0681-.06807-.1052-.01061-.016-.02122-.0292-.03183-.0451l-.00265-.0027c-.02386-.0345-.04773-.0689-.06895-.1025-.00265-.0053-.0053-.0106-.01061-.0159-.00265-.0053-.0053-.008-.00795-.0133-.02122-.0292-.03978-.061-.05746-.0893-.00796-.0106-.01326-.0212-.02122-.0318-.00265-.0053-.00795-.008-.0106-.0133-.02387-.0397-.05039-.0813-.07603-.1211-.00795-.0132-.01856-.0265-.02917-.0424 0-.0026-.00265-.0053-.0053-.0079-.01326-.0239-.02652-.0451-.04243-.0681-.00531-.008-.01061-.0186-.01592-.0265-.03182-.0504-.06276-.0999-.09458-.153-.06365-.1025-.12376-.2051-.18476-.3111-.01326-.0212-.02386-.0425-.03447-.0628-.13967-.2369-.27139-.4791-.3978-.724-.06806-.1343-.13701-.2714-.20243-.4084-.0053-.0106-.00795-.0185-.01326-.0292-.0053-.0132-.01326-.0265-.01856-.0397-.03978-.084-.07602-.1689-.1158-.2529-.01857-.0397-.03713-.0813-.0557-.1237h-.00265c-.01856-.0398-.03447-.0813-.05304-.1211 0-.0027-.00265-.0053-.00265-.008-.01061-.0265-.02387-.053-.03447-.0786-.01061-.0266-.02122-.0531-.03448-.0814-.05304-.1237-.10254-.2475-.15293-.3712-.00796-.0213-.01856-.0425-.02652-.0655-.0053-.0132-.00796-.0238-.01326-.0344-.0053-.0106-.00795-.0186-.01326-.0292-.00265-.0106-.0053-.0186-.01061-.0292-.0106-.0318-.02386-.0654-.03447-.0972l-.09194-.2422-.00265-.0027c-.03182-.0813-.06099-.1662-.08663-.2502-.0053-.0132-.00796-.0291-.01326-.0424-.03978-.1105-.07602-.221-.1105-.3315-.01326-.0424-.02652-.084-.03978-.129-.02652-.084-.05304-.1715-.07867-.2555-.01857-.0584-.03448-.1185-.05039-.1795-.01326-.0477-.02652-.0919-.03713-.1396-.00795-.0345-.01591-.0654-.02652-.0999 0-.0027-.00265-.008-.00265-.0106-.00265-.0106-.0053-.0212-.00795-.0292l-.00266-.0027c-.02917-.1051-.05569-.213-.08132-.3244-.01061-.0451-.02122-.0866-.03183-.1317-.0106-.0451-.02121-.0893-.02917-.1317-.04508-.1954-.08398-.3898-.1211-.5879-.03448-.1821-.06542-.3633-.09459-.5454-.11315-.7195-.17945-1.4515-.19978-2.194-.00531-.1636-.00796-.3289-.00796-.4924 0-.1397.00265-.2794.00531-.4164 0-.0291 0-.0583.00265-.0866.00265-.0318.00265-.0636.00265-.0946 0-.0309 0-.0636.00265-.0972.00265-.0654.00531-.1317.01061-.1954.00265-.0424.00265-.084.0053-.1264.00266-.0866.00796-.1741.01592-.2608.0106-.137.02386-.274.03712-.411.01591-.1609.03183-.3218.05304-.4792v-.0026s.00265 0 .00265-.0027c.00531-.0397.01061-.0813.01592-.1237.00795-.0557.01591-.1105.02386-.1662.00266-.0133.00266-.0265.00531-.0398 0-.0265.0053-.053.00795-.076v-.0027c.00266-.0079.00531-.0159.00531-.0212 0-.0079 0-.0132.00265-.0212v-.0053c.0053-.0239.01061-.0477.01326-.0681.01061-.0636.01856-.1237.02917-.1821v-.0026c.00796-.061.01856-.1211.03182-.1848.01061-.061.02122-.1184.03183-.1768v-.0026h.00265c.01061-.061.02122-.1211.03448-.1821.02121-.1105.04508-.2184.06895-.3289v-.0026s.00265-.0027.00265-.0053c.00795-.0398.01856-.076.02652-.1158.01061-.0398.01856-.0787.02917-.1185.07072-.3005.15028-.5975.23691-.8928.02121-.0787.04508-.1582.07072-.2343.04508-.1502.09193-.3005.14497-.4481.01591-.0478.03448-.0946.05039-.1424.01061-.0318.02121-.0636.03182-.0919.02652-.0787.05304-.1556.08133-.2316.0053-.0159.01061-.0292.01591-.0451.0053-.0132.01326-.0292.01856-.0424.00531-.0159.01061-.0318.01592-.0477.04508-.1132.08928-.2263.13436-.3395.09194-.2263.18741-.4508.28995-.6718.00265-.0027.00265-.0053.0053-.008.02917-.0636.061-.1264.09194-.1927.0053-.0106.01061-.0186.01326-.0292.01591-.0344.03182-.068.04773-.0999.05569-.1158.11315-.2316.17415-.3474v-.0053l.0053-.0053c.07868-.1556.16089-.3138.24487-.4658.06541-.1211.13436-.2396.20066-.358.01061-.0186.02122-.0345.03183-.0531h.00265c.01061-.0159.01856-.0345.02917-.0504.02121-.0344.04243-.068.06099-.1025.01857-.0265.03448-.0531.05039-.0787 0-.0026.00265-.0053.00265-.0079 0 0 .00177-.0018.00531-.0053.02386-.0372.04773-.0761.07072-.1159.01326-.0238.02652-.045.04243-.068.01326-.0212.02652-.0424.03978-.0637v-.0026c.01856-.0265.03712-.0584.05834-.0866.0053-.0054.00796-.0133.01326-.0213.01061-.0212.02652-.0397.03978-.061.13436-.2103.27669-.419.42166-.6214.08133-.1158.16354-.229.24752-.3395.01856-.0265.03978-.053.05834-.0786.00531-.008.01326-.0159.01856-.0239.00796-.0106.01857-.0239.02652-.0371.03448-.0478.06895-.092.1052-.137.02121-.0266.04243-.0504.06365-.0761.08663-.1105.17679-.2183.26077-.327.04243-.0504.08398-.0999.12906-.1503.04244-.0478.08398-.0946.12376-.1423.02917-.0345.05746-.0655.08928-.0999v-.0027c.061-.0707.12376-.1397.18476-.2077.03978-.0451.07867-.0866.11845-.1291.01326-.0132.02387-.0265.03448-.0398.01591-.0185.03182-.0344.04773-.0503.01591-.016.03183-.0345.04774-.0478.01061-.0106.02121-.0212.03182-.0345.01326-.0106.02387-.0238.03448-.0344.08663-.0893.17414-.1795.26342-.2688l.07868-.076.02387-.0265c.01061-.008.01856-.0159.02917-.0265.02652-.0265.05304-.0504.07602-.076.02122-.0213.03713-.0345.05569-.0531v-.0026h.00266c.01326-.0133.02652-.0266.03978-.0372.0053-.0026.0106-.0079.01325-.0132.00531-.0027.01061-.008.01326-.0106.01326-.0133.02652-.0239.03713-.0372h.00265c.02387-.0265.05039-.0504.07603-.0733.02386-.0266.05038-.0478.07425-.0708.03713-.0318.07337-.0636.1105-.0972.09459-.084.18475-.1662.27934-.2502.03713-.0318.07602-.061.11315-.0919.06895-.0583.13967-.1184.20774-.1768.01326-.0133.02917-.0265.04508-.0398.02122-.0185.04508-.0371.06807-.0557.01591-.0132.03182-.0238.04773-.0371.02917-.0212.05569-.0451.08221-.0654.01326-.0106.02918-.0212.03978-.0292.00531-.0079.01061-.0106.01591-.0132.00796-.008.01592-.0159.02387-.0213.05746-.0477.11581-.09189.1768-.13962.05746-.04508.1158-.08928.1768-.13172.05038-.03712.09989-.07337.15293-.11049.01326-.00796.02652-.01592.03712-.02652l.00266-.00266c.01326-.0106.02386-.01856.03447-.02651.03713-.02918.07602-.05304.11315-.07868.00265 0 .00265-.00265.00531-.00265.03447-.02387.06895-.05039.10254-.07602.0946-.06542.1892-.13172.2846-.19448.1052-.07072.2131-.14232.3209-.20774h.0027c.0132-.0053.0238-.01326.0371-.02121.0053-.00531.0106-.00796.0159-.01326.084-.0557.1689-.1052.2528-.15824.1132-.06895.2263-.13702.3421-.20508h.0027l.0159-.00796c.0371-.02121.0707-.03978.1079-.06099.0185-.01061.0397-.02122.0574-.03448.061-.03448.1211-.06541.1821-.09989.0053-.0053.0106-.00796.0159-.00796h.0027c.0053 0 .0079-.00265.0106-.0053l.0026-.00265c.1185-.06542.2369-.12906.3581-.19006.0291-.01591.0609-.03182.0892-.04508.0292-.01326.0575-.02652.0867-.04243.0344-.01592.0654-.03448.0999-.05304.0583-.02917.1158-.05835.1741-.08398.0239-.01061.0451-.01857.0654-.02917.0133-.00531.0239-.01061.0371-.01857.0504-.02386.0999-.04773.1503-.07072.0133-.0053.0239-.00795.0345-.01326.0053-.00265.0133-.0053.0186-.00795.0185-.01061.0371-.01857.0557-.02652.0079-.00265.0159-.00796.0238-.01061.0265-.01061.0504-.02121.0734-.03182.0159-.00796.0292-.01326.0424-.02122.0628-.02917.1264-.05569.1927-.08132.0628-.02918.1291-.0557.1945-.08133.0424-.01591.0813-.03183.1238-.04774.0291-.01326.0583-.02652.0892-.03713.0054-.00265.0107-.00795.0186-.0106h.0027c.4579-.17945.9273-.33945 1.4037-.47912.29-.08663.5826-.16619.8796-.23426.0972-.02652.1971-.05039.2979-.06807.0972-.02386.1971-.04508.2979-.06364.3952-.08133.7929-.14763 1.1987-.19713.1078-.01591.2183-.02917.3288-.03978.0999-.01326.2025-.02387.3032-.03183.0973-.0106.1954-.01856.29-.02386.213-.01591.4296-.02917.6453-.03713.2237-.01061.4473-.01591.6745-.01591.1874 0 .3713.00265.556.01061-.5162 1.34631-.7956 2.77925-.8513 4.22018-.0212.4923-.3288.6585-.6718.9432l-.0044.0088Zm2.2126 7.01c-.8955 0-1.6203-.7239-1.6203-1.623 0-.899.7239-1.6203 1.6203-1.6203.8964 0 1.623.724 1.623 1.6203 0 .8964-.7266 1.623-1.623 1.623Zm8.0187-5.326c-.237.1901-.5923.2449-.8195 0-1.4595-1.5832-3.3848-2.6263-5.5055-3.0029-.2289-.0398-.4508-.32706-.4243-.55867.0531-.48177.145-.95382.3218-1.40642.2077-.54011.4977-1.0378.8477-1.49394.419.08929.8327.19536 1.2385.31912.1397.03978.2767.08398.4137.12906.0787.02387.1556.05039.2343.07603.3288.1105.6559.2316.9741.36332.1768.07072.3501.14762.5242.2263.1556.06806.3112.13967.4632.21569.0707.03448.1423.06807.2104.10254.1185.05835.2316.1158.3474.17945.3342.1768.6612.36332.9821.56399.0425.02386.084.05038.1264.07602.0504.03182.0973.06099.1424.09193.0945.05834.1874.11846.2793.1821.0451.03183.0919.061.137.09194.3474.23691.6851.48442 1.0139.74784-.0212.0946-.045.1901-.0689.282-.2608.9874-.6188 2.1446-1.4409 2.8137l.0027.0009Zm8.0787 10.9659c-.0053.1184-.0079.2369-.0159.3553-.0053.1105-.0106.221-.0159.3289v.0053c-.008.1105-.0159.2157-.0265.3271-.008.0786-.0133.1582-.0239.2395-.008.0787-.0159.1609-.0265.2422-.0133.1291-.0292.2555-.0478.3846-.045.3288-.0972.6559-.1635.9803-.0159.0893-.0345.1795-.053.2687-.0159.0787-.0345.1556-.0531.2343-.0132.0654-.0291.1317-.0477.1971-.0972.4164-.2104.8274-.3421 1.2305-.0292.0973-.0601.1954-.0946.29-.0575.1768-.1211.35-.1874.5242-.0106.0292-.0212.061-.0345.0919-.0398.1132-.084.221-.1317.3315 0 0 0 .0027-.0026.0027-.0867.2263-.1875.4508-.29.6745-.0707.1582-.145.3164-.2236.4711-.0531.1105-.1079.221-.1689.3315-.0681.1344-.1397.2661-.213.3952-.0707.1317-.145.2607-.221.3898-.069.1211-.1397.2369-.2104.3527-.0027.0027-.0053.0027-.0053.0053-.0106.0186-.0212.0345-.0318.0504-.0743.1184-.1503.2369-.2263.3527-.0761.1211-.1583.2396-.2423.358-.0026.0027-.0026.0053-.0053.0053-.0318.0504-.0689.0999-.1025.1503-.0053.008-.0106.0159-.0186.0239-.0397.0557-.0813.1131-.1237.1688-.0133.0212-.0292.0398-.0425.061 0 .0027-.0053.008-.0079.0106-.0106.0159-.0212.0318-.0371.0478 0 0-.0009.0017-.0027.0053-.0053.0079-.0106.0185-.0212.0265-.008.0106-.0159.0185-.0239.0291-.129.1742-.2634.3475-.4004.5163-.0027.0026-.0027.0053-.0053.0053 0 0-.0009.0018-.0027.0053-.1025.1264-.2024.2475-.3111.366-.0973.1158-.1998.2342-.3085.35-.1875.2051-.3766.4058-.5746.6029-.0372.0398-.0814.0813-.1264.1211-.0743.076-.1503.1503-.2263.221h-.0027c-.0999.0999-.206.1971-.3112.29 0 .0026-.0026.0026-.0053.0053h-.0026c-.0531.0477-.1052.0946-.1583.1396-.053.0478-.1078.092-.1608.1397-.2714.2316-.5481.4606-.8407.6771 0-.6453.0026-1.2906.0079-1.9359.016-3.993.0345-7.9895.0531-11.986.0106-2.5291.0212-5.0546.0318-7.5837.0027-.1945.1079-.4111.2873-.5003 1.1907-.5976 2.1525-1.4887 2.8447-2.5477.2528.3218.4924.6506.724.9874.6347.9432 1.1827 1.9492 1.6274 3.0082.4455 1.0617.7876 2.1755 1.0166 3.33.0344.1689.0654.3368.0919.5057.008.0424.0133.0839.0212.129 0 0 .0009.0018.0027.0053.0106.0637.0212.1291.0291.1927.0292.2263.0345.2529.0372.2794.0106.0689.0185.1343.0265.2024.0132.1158.0265.2316.0371.3448v.0026s0 .0027.0027.0027c.0053.0636.0106.1264.0159.19.0079.076.0132.1529.0185.229.0106.1503.0213.2979.0266.4482.0079.1476.0132.2979.0159.4481.0026.1291.0053.2582.0053.3899 0 .1582-.0027.3164-.0053.4738l.0035.0009Z" fill="#fff"/>
  <path d="M37.2012 22.4429c-.0106-.1397-.0212-.282-.0371-.4217v.0027c.0159.1388.0265.2793.0362.4181l.0009.0009ZM37.1002 21.4705c-.0212-.1609-.0424-.3191-.069-.4765v.0036c.0266.1564.0469.3138.0681.4729h.0009ZM36.8164 27.5691c.0186-.0787.0371-.1556.053-.2343-.0159.0787-.0344.1547-.053.2334v.0009ZM3.7642 30.1062c-.01502-.0336-.0274-.0672-.04154-.1017.01326.0345.02563.0681.03889.1017.05039.1237.09989.2475.15293.3713.02298.0539.04774.106.07072.16-.02298-.0531-.04685-.1061-.06807-.16-.05304-.1238-.10254-.2476-.15293-.3713ZM5.60322 33.551c-.00795-.0106-.01591-.0212-.02121-.0309-.01591-.0221-.03094-.0451-.04685-.0681.02386.0354.04685.0707.07072.1052 0 .0009.00176.0018.00176.0027-.00176-.0027-.00353-.0053-.0053-.008l.00088-.0009ZM5.0634 32.7192c-.21835-.358-.42432-.724-.61614-1.0988-.02917-.0557-.05569-.1132-.08398-.1689.21569.4323.44818.8557.69747 1.2677.03712.0601.07514.1184.11315.1785-.00531-.0088-.01061-.0168-.01591-.0256-.03183-.0504-.06365-.0999-.09459-.1529ZM5.83486 33.8728c-.01061-.0106-.01856-.0239-.02652-.0345-.01856-.0239-.03447-.0451-.04773-.0681-.00442-.0044-.00707-.0097-.01061-.0141.0274.0389.05392.0787.08221.1167.01061.015.0221.03.03271.0442 0 0-.00089-.0009-.00089-.0027-.0106-.0132-.02121-.0291-.02917-.0424v.0009ZM5.31365 33.117c-.00796-.0106-.01591-.0212-.02122-.0345-.01326-.0159-.02298-.0336-.03359-.0522-.00265-.0044-.00619-.0088-.00884-.0132.02829.0451.05658.0902.08486.1344.02564.0406.05393.0795.08045.1193-.02741-.0398-.05128-.0796-.0778-.1193-.00795-.0107-.01856-.0213-.02386-.0345ZM3.5712 29.6075s0-.0018-.00089-.0026c.02917.0839.061.1635.09194.2448.01061.0318.02475.0646.03712.0964-.01237-.0318-.02386-.0646-.03447-.0964l-.0937-.2422ZM3.00124 27.6786c-.0106-.0442-.02121-.0892-.02828-.1308-.04509-.1953-.08398-.3898-.12111-.5878-.03448-.1821-.06541-.3634-.09459-.5455-.11315-.7195-.17945-1.4515-.19978-2.194-.0053-.1635-.00795-.3289-.00795-.4924 0-.1397.00265-.2793.0053-.4163 0-.0292 0-.0584.00265-.0867.00265-.0654.00265-.1282.00531-.1909-.00266.0627-.00619.1273-.00796.1909-.00265.0292-.00265.0584-.00265.0867-.00265.1396-.0053.2766-.0053.4163 0 .1635.00265.3289.00795.4924.02122.7425.08663 1.4754.20067 2.194.02386.153.05038.3059.07867.4562.0053.0292.01061.061.01591.0893.03713.1971.07603.3925.12111.5878.02121.0893.03978.1768.06276.2634-.01061-.0424-.02121-.0866-.03182-.1317v-.0009h-.00089ZM2.57311 22.838c.00265-.0424.00265-.084.0053-.1264.00531-.0875.00796-.1741.01591-.2616-.0106.129-.01856.2581-.02386.3871-.00442.0646-.00531.13-.00796.1945v-.0009c.00265-.0654.0053-.1308.01061-.1936v.0009ZM2.67596 21.6313c-.03359.2714-.06188.5437-.08221.8195v-.0009c.0221-.2749.0495-.5481.08221-.8186ZM8.6962 36.965s.00795.0062.01149.0097c-.00442-.0035-.00796-.0071-.01238-.0106 0 0 0 .0009.00089.0009ZM3.19307 28.4169c-.01326-.0469-.02652-.0919-.03713-.1388-.00972-.0371-.02033-.0734-.03094-.1105.00972.0362.01768.0743.02829.1105.02917.1078.05834.213.08928.3191-.01591-.061-.03448-.1184-.05039-.1794l.00089-.0009Z" fill="#1C1C1B"/>
  <path d="M3.24219 28.5963c.07072.2405.14762.4783.22807.7152-.05216-.1521-.10343-.305-.14851-.4597-.02652-.0866-.05304-.1715-.07868-.2555h-.00088ZM4.21346 31.1431c-.03978-.084-.07779-.168-.1158-.252.03801.084.07602.1689.1158.252Z" fill="#1C1C1B"/>
  <path d="M37.2421 23.3383c-.0026-.1502-.0079-.3005-.0159-.4481-.0053-.1503-.0159-.2979-.0265-.4482-.0053-.076-.0106-.153-.0186-.229-.0053-.0636-.0106-.129-.0185-.1927v-.0026c-.0107-.1132-.0239-.229-.0372-.3448-.0079-.0681-.0159-.1344-.0265-.2024-.0026-.0265-.008-.0531-.0371-.2794-.0106-.0654-.0212-.1317-.0318-.1971-.008-.0451-.0133-.0866-.0213-.1291-.0265-.1688-.0583-.3368-.0919-.5056-.2289-1.1536-.5719-2.2683-1.0166-3.33-.4446-1.059-.9927-2.065-1.6274-3.0082.5746-.7823 1.0166-1.6592 1.3118-2.5865.29-.8955.4429-1.84137.4429-2.78989 0-.36597-.0212-.73459-.0689-1.10145-.0027-.02652-.008-.05038-.0133-.07337-.0027-.02652-.0027-.05304-.008-.07867-.1184-.82741-.4031-1.69637-1.0298-2.28157-.701-.65592-1.6937-.8557-2.5945-.5136-.93.35006-1.5991 1.1041-1.9863 2.00488-.0159.03713-.0318.07337-.0451.1105-.1741.42962-.282.87426-.3713 1.3251-.0919.45083-.1609.90608-.2528 1.35692-.0451-.03183-.0919-.061-.137-.09194-.0478-.02917-.092-.05834-.1397-.08928-.0477-.03182-.0919-.06099-.1397-.09193-.045-.03183-.0919-.061-.1423-.09194-.0398-.02652-.084-.05039-.1264-.07602-.3209-.19713-.648-.38719-.9821-.56399-.1158-.06099-.229-.1211-.3474-.17944-.069-.03448-.1397-.06807-.2104-.10255-.1529-.07602-.3085-.14762-.4632-.21569-.1715-.07867-.3474-.15293-.5242-.2263-.3191-.13171-.6453-.25282-.9742-.36332-.0786-.02652-.1555-.05304-.2342-.07602-.137-.04509-.2741-.08928-.4137-.12906.5587-.59228 1.2305-1.06433 1.8519-1.59649.137-.11845.2741-.24221.4031-.37127.503-.49503.9247-1.07228 1.1483-1.75206.2475-.76111.2263-1.67516-.2395-2.34964-1.014-1.467417-3.0613-1.0749271-4.3988-.350058-1.3144.710728-2.3602 1.851948-3.1399 3.121358-.1423.22895-.2767.46321-.4004.701-.3218.61084-.5958 1.24554-.8221 1.89881-.2157.00795-.4323.02121-.6453.03712-.0973.00796-.1954.01592-.29.02387-.1025.01061-.2024.02122-.3032.03182-.1105.01061-.221.02387-.3288.03978-.4058.05304-.8036.11846-1.1987.19713-.0999.02122-.2007.04243-.2979.06365-.0999.02122-.2007.04508-.2979.06807-.2953.07072-.5897.15028-.8796.23425-.1927.05835-.3845.11846-.5746.1821-.2793.09459-.556.19271-.8301.29791h-.0026c-.008.00265-.0133.00795-.0186.01061-.0318.0106-.061.02386-.0893.03712-.0424.01592-.0813.03183-.1237.04774-.0654.02652-.1317.05304-.1945.08133-.0654.02652-.129.05304-.1927.08132-.0133.00796-.0265.01326-.0424.02122-.0239.01061-.0478.02121-.0734.03182-.008.00265-.0159.00796-.0239.01061-.0185.00796-.0371.01591-.0557.02652-.0053.00265-.0132.0053-.0185.00796-.0265.0106-.0531.02386-.0787.03712-.0345.01591-.0681.03183-.0999.04774h-.0053c-.0133.00795-.0239.01326-.0371.01856-.0212.01061-.0424.01857-.0654.02917-.0575.02652-.1158.05569-.1742.08398-.0345.01857-.0654.03713-.0999.05304-.0291.01591-.0583.02917-.0866.04243-.0292.01326-.061.02917-.0893.04509-.1211.06099-.2395.12375-.358.19005l-.0026.00266s-.0054.0053-.0107.0053h-.0026c-.0053 0-.0106.00265-.0159.00795-.061.03448-.1211.06542-.1821.0999-.0186.01325-.0398.02386-.0575.03447-.0371.02122-.0707.03978-.1078.061l-.0159.00795h-.0027c-.1158.06807-.2289.13702-.3421.20509-.084.05304-.1688.10254-.2528.15823-.0053.0053-.0106.00796-.0159.01326-.0133.00796-.0239.01591-.0372.02122h-.0026c-.1079.06541-.2157.13701-.3209.20773-.0946.06277-.1901.12907-.28464.19448-.03447.02652-.06895.05304-.10254.07602-.00265 0-.00265.00266-.0053.00266-.05039.03712-.09724.07071-.14763.10519l-.00265.00265c-.01061.01061-.02387.01856-.03713.02652-.05304.03713-.10254.07337-.15293.1105-.06099.04243-.11845.08663-.1768.13171-.06099.04774-.11845.09196-.17679.13966-.00796.008-.01592.0159-.02387.0212-.0053.0053-.01061.0106-.01591.0133-.07868.0636-.15824.1264-.23691.1874-.01591.0133-.03183.0265-.04508.0398-.06807.0583-.13967.1184-.20774.1768-.03713.0318-.07602.061-.11315.0919-.09459.084-.18476.1662-.27934.2502-.03713.0344-.07426.0654-.1105.0972-.02387.0239-.05039.0451-.07425.0707-.02652.0239-.05304.0478-.07603.0734h-.00265c-.01061.0133-.02387.0239-.03713.0371-.00265.0027-.00795.008-.01326.0106-.00265.0053-.00795.0106-.01326.0133-.01326.0106-.02652.0239-.03978.0371 0 0-.00265 0-.00265.0027-.01856.0185-.03447.0318-.05569.053-.02387.0265-.0495.0504-.07602.076-.01061.0106-.01857.0186-.02917.0266l-.02387.0265-.07868.076c-.08928.0893-.17679.1794-.26342.2687-.01061.0106-.02122.0239-.03448.0345-.01061.0133-.02122.0239-.03182.0345-.04244.0477-.08663.0919-.12907.137-.03978.0424-.07867.084-.11845.1291-.06099.068-.12376.137-.18475.2077v.0027c-.03183.0344-.061.0654-.08929.0998-.03977.0478-.08132.0946-.12375.1424-.04509.0504-.08663.0999-.12907.1502-.08397.1079-.17414.2157-.26077.3271-.02122.0265-.04243.0504-.06365.076-.03713.0451-.07072.0893-.10519.1371-.00796.0132-.01857.0265-.02652.0371-.00531.0079-.01326.0159-.01857.0239-.01856.0265-.03712.0556-.05834.0786-.08398.1105-.16619.2237-.24752.3395-.14497.2024-.28729.411-.42166.6214-.01326.0212-.02917.0398-.03978.061-.0053.008-.00795.0159-.01326.0212-.01591.0266-.03447.0531-.05039.0787-.00265.0027-.0053.0053-.00795.008v.0026c-.01326.0212-.02652.0424-.03978.0637-.01591.0238-.02917.045-.04243.068-.02387.0398-.04774.0787-.07072.1158-.00265.0027-.0053.008-.00796.0133-.01591.0265-.03182.053-.05038.0787-.01857.0344-.03978.0689-.061.1025-.01061.0159-.01856.0345-.02917.0504h-.00265c-.01061.0186-.02122.0345-.03183.053-.06541.1185-.13436.2369-.20066.3581-.08398.1529-.16619.3111-.24487.4658l-.0053.0053v.0053c-.06099.1158-.11845.2316-.17414.3474-.01592.0319-.03183.0654-.04774.0999-.00265.0106-.00796.0186-.01326.0292-.05569.1184-.1105.2342-.16354.3527-.05569.1264-.1105.2528-.16353.3792-.06542.1609-.13172.3191-.19448.4792-.00531.0159-.01061.0318-.01591.0477-.03448.0866-.06365.1768-.09459.2661-.01856.0477-.03448.0972-.05304.1449-.01591.0478-.03448.0946-.05039.1424-.05304.1476-.09989.2979-.14497.4481-.02652.0761-.05039.1556-.07072.2343-.08663.2953-.16619.5923-.23691.8928-.01856.0787-.03447.1556-.05569.2343 0 0-.00088.0018-.00265.0053v.0026c-.02387.1105-.04774.2184-.06895.3289-.01326.061-.02387.1211-.03448.1821h-.00265s-.00265 0 0 .0026c-.01061.0584-.02122.1158-.03182.1768-.01326.0637-.02387.1238-.03183.1848v.0026c-.0106.0584-.01856.1185-.02917.1821-.00265.0213-.00795.0451-.01326.0681v.0053c-.00265.008-.00265.0133-.00265.0212-.00265.0212-.0053.0451-.00796.0654-.00265.0106-.0053.0239-.0053.0345-.00265.0133-.00265.0265-.0053.0398-.00796.0557-.01592.1105-.02387.1662-.00531.0424-.01061.084-.01591.1237-.00266.0266-.00531.0504-.00796.0761-.03447.2714-.06099.5427-.08398.8194-.00795.0867-.01326.1742-.01591.2608-.00265.0424-.00265.084-.0053.1264-.00531.0637-.00796.1291-.01061.1954-.00265.0344-.00265.0654-.00265.0972 0 .0318 0 .0628-.00266.0946-.00265.0292-.00265.0583-.00265.0866-.00265.137-.0053.2767-.0053.4164 0 .1635.00265.3288.00795.4924.02122.7425.08664 1.4753.19979 2.194.02917.1821.06099.3633.09458.5454.03713.1972.07603.3925.12111.5879.00795.0424.01856.0866.02917.1317.01061.0451.02122.0866.03182.1317.02652.1105.05569.221.08398.3271.00265.0079.00531.0186.00796.0292 0 .0026.00265.0079.00265.0106.01061.0344.01856.0654.02652.0999.01061.0477.02387.0919.03713.1396.01591.061.03182.1211.05038.1795.02652.084.05304.1715.07868.2555.04773.1555.09724.3085.15028.4605.0053.0133.00795.0292.01326.0424.02652.084.05569.1689.08663.2502l.00265.0027.09193.2422c.01061.0318.02387.0654.03448.0972.0053.0106.00796.0186.01061.0292.0053.0106.00795.0186.01326.0292.0053.0106.00795.0212.01326.0344.00795.0239.01856.0451.02652.0654.05038.1238.09989.2476.15293.3713.01326.0292.02386.0557.03447.0814.01061.0265.02387.053.03448.0786 0 .0027.00265.0053.00265.008.01856.0398.03713.0813.05569.1211.01856.0424.03713.084.05569.1237.03978.084.07602.1689.1158.2529.00531.0132.01326.0265.01857.0397.04508.0893.08928.1795.13436.2688.02652.0557.05304.1131.08133.1688.02917.0575.06276.1123.09282.1689.09812.1865.19978.3721.30497.5551.01061.0212.02122.0424.03448.0628.061.1052.12111.2077.18475.3111.03183.0531.06277.1026.09459.153.0053.0079.01061.0185.01591.0265.01591.0238.02917.0451.04243.068.00266.0027.00531.0053.00531.008.0106.0159.02121.0292.02917.0424.02652.0398.05304.0814.07602.1211.00265.0053.00796.008.01061.0133.00796.0106.01326.0212.02121.0318.01857.0292.03978.0584.05746.0893.00266.0053.00531.008.00796.0133.0053.0053.00796.0106.01061.0159.02121.0345.04508.068.06895.1025l.00265.0027c.01061.0159.02122.0291.03182.0451.02387.0371.04509.0707.06807.1051l.00265.0027s.00266.0027.00266.0053c.0053.008.0106.0133.01591.0212.00265.0053.0053.008.01061.0133.03182.0451.06364.0919.09458.137.00531.008.01061.0133.01591.0212.02122.0292.03978.0557.05835.0813.00795.0106.01591.0239.02652.0345.0053.0106.01591.0239.02386.0345.00266.0026.00531.0079.00796.0106v.0027c.02917.045.061.0866.09459.129 0 0 .00176.0018.0053.0053.00265.0053.00796.0106.01061.0133.00795.0132.01591.0238.02387.0345.06806.0919.13701.1821.20596.2687.00266.0053.00531.0106.01061.0159.03713.0477.07337.0946.1105.1397.02917.0371.05746.0707.08663.1078.01326.0133.02387.0292.03448.0424h.00265s.00265.0027.00265.0054c.00265.0026.00531.0026.00531.0053.00795.0079.0106.0159.01591.0212.05569.0654.10784.129.16353.1953v.0027c.06542.0742.12907.1476.19271.221.00266.0053.00796.0079.01326.0132.01857.0239.03713.0478.05746.0681.03448.0398.07072.0787.10785.1185.0053.0053.01061.0132.01591.0185.01326.0133.02652.0292.03713.0425.05039.0583.10254.1158.15823.1714.061.0655.12111.1318.18476.1972.01856.0185.03712.0371.05569.0557.03978.0371.07602.076.11315.1131.06099.061.11845.1211.17945.1795.02917.0318.06099.0627.09193.0919.00265.0027.0053.0027.0053.0053.02122.0186.04244.0398.06277.061.00795.008.01326.0106.01856.0212.09989.0946.20243.1901.30586.2847.03978.0371.08133.0733.12111.1078.02121.0159.04243.0345.06276.053.04508.0372.08663.0761.13171.1158.00266.0027.00796.0054.01061.0107.04509.0371.08928.0733.13172.1105.0053.0026.00795.0079.01326.0106.08132.0707.16619.1396.25016.2077l.03978.0318c.01061.008.02122.0186.03183.0239.01856.0159.03712.0292.05569.0477h.00265c.01061.008.02122.0159.03182.0265.00266.0027.00796.0053.01061.008.00531.0053.01326.0106.01857.0159 0 0 .00176.0009.0053.0027.07337.0583.15028.1184.22365.1741.03182.0292.06541.0557.09989.0787.02387.0159.04243.0292.06099.0424.00796.0053.01326.0106.02122.0159.00796.0053.01326.0106.02121.0159.1052.0814.21039.1609.32178.2343v.0027h.00265c.03978.0291.08132.0609.12107.0866.008.0053.0133.0079.0213.0132.0026.0027.0053.0053.0079.0053.0477.0319.0946.0628.1397.0946.0946.0637.1874.1291.282.1901.061.0398.1237.0787.1874.1184.0318.0213.0627.0425.0946.061.0945.0584.19.1158.2846.1689.084-1.1616.1211-2.3284.1998-3.4874.145-2.1887.2979-4.3757.4508-6.5644.0946-1.3251.2555-2.6635.2847-3.993 0-.0212.0026-.0424.0026-.0637.0159-.2077-.1211-.3951-.2846-.5003-.8743-.5666-1.79364-1.1881-2.59188-1.9121-.03182-.0265-.06365-.053-.09193-.0813-1.34897-1.4966-.96178-3.6111.00795-5.2049.77703.4243 1.76266.4429 2.57596.1211.5003-.1971.9591-.4818 1.3171-.8849.1998-.2263.2396-.5975 0-.8194-.2183-.1998-.6029-.2396-.8194 0-.0787.0893-.1609.1741-.2502.2528-.5772.4977-1.4436.648-2.15782.3792-.61879-.2342-.89282-.9114-.90874-1.5408.23161-.1476.47913-.2793.7399-.3871.89016-.374 1.88906-.4845 2.84466-.5295.5481-.0266 1.1015-.0319 1.6513-.0186.4349.0106.869.0345 1.3012.0654.4791.0345 1.0564.2104 1.4595-.1158.3058-.2502.6082-.5083.9114-.7611.4163-.3448.83-.6931 1.2455-1.0405.3421-.2846.6506-.4508.6718-.9432.0557-1.44088.3342-2.87382.8513-4.22013.2131-.55868.4659-1.1041.7638-1.62565.1688-.30056.3554-.59758.5613-.88753.0531-.07337.1052-.14762.1609-.21834.0451-.06365.0919-.12376.1397-.18476.053-.06806.1078-.13436.1635-.19978.0813-.09724.1662-.19536.2528-.28729.0867-.09459.1742-.18741.2661-.27669.0451-.04508.092-.08928.137-.13171.1397-.13172.2847-.25548.435-.37128.0503-.03713.0998-.07602.1502-.11315.153-.1105.3112-.21569.4739-.31116.0972-.05835.1953-.1105.2952-.16089.008-.00265.0159-.00795.0239-.01061.0504-.02652.0972-.05038.1476-.07071.0654-.02918.1291-.05835.1954-.08398.1688-.06542.3394-.12376.5136-.1715.632-.16884 1.4992-.22099 1.9076.40045.4402.67183.0707 1.60709-.3686 2.17549-.0478.06365-.0973.12376-.1503.1821-.0265.03183-.053.061-.0787.08928-.1025.1105-.2077.2157-.3191.31647-.0186.01591-.0371.03448-.0557.05304-.0079.00796-.0186.01591-.0292.02652-.0636.05569-.1264.1105-.1927.16619-.4605.39249-.9617.7452-1.4064 1.15095-.3165.2873-.6029.59492-.8557.92996-.35.45613-.64.95382-.8477 1.49393-.1768.45349-.2688.92465-.3218 1.40643-.0265.2316.1945.51885.4243.55865 2.1207.3766 4.046 1.4197 5.5055 3.0029.2263.2449.5825.1901.8194 0 .8221-.6691 1.1802-1.8254 1.4409-2.8137.0239-.0919.0478-.1874.069-.282.1052-.46055.1741-.93525.2555-1.40641.0813-.47117.1794-.93526.3376-1.37726.0372-.10784.0787-.21304.1238-.31646.3554-.8009 1.2066-1.69638 2.1781-1.41173.8381.24486 1.1174 1.18277 1.2412 1.9598.0132.11315.0238.2263.0344.33945v.02122c.008.11315.0159.22629.0186.33945.0027.02917 0 .06099 0 .08928.0027.09105.0035.18298.0027.27492-.0009.10077-.0018.20155-.008.30232v.02917l-.0027.04243c-.0053.0999-.0106.20244-.0212.30321-.0106.1105-.0238.221-.0371.3315-.0106.08928-.0239.17945-.0398.26873-.0106.06368-.0212.12378-.0345.18738-.0132.0787-.0291.1556-.0477.2343-.2077.9591-.5878 1.8705-1.1244 2.682-.6931 1.059-1.654 1.9492-2.8447 2.5476-.1794.0893-.2846.3059-.2873.5004-.0106 2.5291-.0212 5.0546-.0318 7.5837-.0186 3.9956-.0371 7.9921-.053 11.986-.0054.6453-.008 1.2906-.008 1.9359.2926-.2157.5693-.4455.8407-.6771.053-.0478.1078-.0919.1609-.1397.053-.0451.1051-.0919.1582-.137v-.0027h.0026s.0027-.0026.0027-.0053h.0026c.1052-.0919.2104-.19.3112-.2899h.0027c.076-.0707.1529-.145.2263-.221.045-.0398.0892-.0813.1264-.1211.1971-.1971.3872-.3978.5746-.6029.1078-.1158.2103-.2342.3085-.35.1052-.1185.2077-.2423.3111-.366 0 0 .0009-.0018.0027-.0053 0 0 .0026-.0027.0053-.0053.137-.1689.2714-.3421.4004-.5163.008-.0106.0159-.0185.0239-.0291.008-.008.0133-.0186.0212-.0266 0 0 .0009-.0017.0027-.0053.0159-.0159.0265-.0318.0371-.0477.0027-.0027.008-.008.008-.0106.0132-.0212.0291-.0398.0424-.061.084-.1132.1662-.2263.2449-.3421.0026 0 .0026-.0027.0053-.0053.0839-.1185.1661-.2369.2422-.358.076-.1158.1529-.2343.2263-.3527.0106-.016.0212-.0319.0318-.0504 0-.0027.0026-.0027.0053-.0053.0716-.1158.1397-.2343.2104-.3527.076-.1291.1503-.2582.221-.3899.0742-.129.145-.2608.213-.3951.061-.1105.1158-.221.1689-.3315.0786-.1556.1529-.3138.2236-.4712.1026-.2236.2024-.4482.29-.6745.0026 0 .0026-.0026.0026-.0026.0477-.1105.0919-.2184.1317-.3315.0133-.0318.0239-.0637.0345-.0919.0654-.1742.1291-.3475.1874-.5243.0345-.0945.0654-.1927.0946-.2899.1317-.4031.2449-.8141.3421-1.2305.0186-.0654.0345-.1317.0477-.1971.0186-.0787.0372-.1556.0531-.2343.0185-.0893.0371-.1794.053-.2687.0654-.3245.1185-.6506.1635-.9804.0186-.129.0345-.2554.0478-.3845.0106-.0813.0185-.1635.0265-.2422.0106-.0813.0159-.1609.0239-.2396.0106-.1105.0185-.2157.0265-.3271v-.0053c.0053-.1078.0106-.2183.0159-.3288.008-.1185.0106-.2369.0159-.3554.0027-.1582.0053-.3164.0053-.4738 0-.1317-.0026-.2608-.0053-.3898l-.0053-.0142ZM7.03627 19.0395c-.09723-.3474-.15823-.7142-.17679-1.0988-.04951-1.0378.28729-1.9651.89017-2.697.08928.2873.2263.5587.40045.8035-.59581.8981-.99802 1.9386-1.11383 2.9923Z" fill="#314457"/>
  <path d="M7.91042 36.2604c-.02122-.0203-.04243-.0406-.06276-.0601.0274.0274.0548.0548.08309.0831.09989.0946.20243.1901.30586.2847-.09989-.0946-.20243-.1892-.30321-.2847-.00707-.0071-.01502-.015-.02298-.0221v-.0009ZM6.44058 34.6658c-.00884-.0115-.01768-.0221-.02652-.0327.01149.0141.02299.0291.03448.0433-.00265-.0036-.00619-.0071-.00796-.0106ZM6.9015 35.2085c-.02476-.0283-.04862-.0557-.07338-.084.02387.0274.04686.0566.07072.084.04155.046.08398.091.12553.137-.0053-.0062-.00972-.0115-.01503-.0186-.03713-.0397-.07425-.0786-.10784-.1184ZM9.02703 37.239c-.0106-.008-.02033-.0159-.03094-.0248.02918.0239.05746.0487.08752.0716.01414.0115.02829.0221.04243.0327-.01326-.0114-.02564-.0229-.03978-.0327-.01945-.0159-.03978-.0318-.05923-.0477v.0009ZM5.98098 34.0744s0-.0009-.00088-.0009c-.00089-.0018-.00265-.0035-.00354-.0044.00796.0115.01591.0221.02475.0336 0-.0027-.00265-.0027-.00265-.0053-.0053-.0071-.01237-.015-.01768-.0221v-.0009ZM28.9727 8.94971c.0424.02652.0857.05038.1281.0769-.0424-.02652-.0857-.05127-.1281-.0769ZM12.0065 8.28137c-.1212.061-.2396.12376-.3581.19006.0434-.02387.0884-.04597.1318-.06984.0751-.04066.1502-.08132.2263-.12022ZM12.9136 7.84919c.0151-.00707.031-.01326.046-.02033.0637-.02918.1264-.0557.1927-.08133.0637-.02917.1291-.05569.1954-.08133.03-.01326.0619-.02563.0919-.03801.0089-.00354.0186-.00795.0274-.01149-.0406.01591-.0813.03271-.1229.04862-.0654.02652-.1317.05304-.1944.08133-.0654.02652-.1291.05303-.1927.08132-.046.02122-.0937.04243-.1406.06365.008-.00354.0159-.00707.0248-.01061.0238-.01149.0486-.0221.0724-.03182ZM12.2841 8.14175c.0212-.0106.0442-.02121.0654-.03182.0363-.01768.0716-.03624.1079-.05216.0212-.00972.0415-.01944.0619-.02917.0123-.00619.0256-.01237.038-.01768.0009 0 .0026-.00088.0035-.00176-.0353.01679-.0707.03182-.1061.0495-.0583.02652-.1158.05569-.1741.08398-.0919.04508-.1848.09193-.2767.13967.0592-.03094.1167-.05835.1742-.08752.0344-.01679.0698-.03536.1043-.05215l.0017-.00089ZM11.6358 8.47939s.0061-.00353.0088-.0053c.0018-.00089.0026-.00177.0044-.00265-.0053 0-.0106.0053-.0159.00795-.0053 0-.0106.00265-.0159.00796.0018-.00177.0044-.00177.0071-.00354.0044-.00177.0079-.00442.0115-.00442ZM11.2698 8.68188c-.0053.00266-.0106.00531-.0159.00796h.0027c.0053-.00265.0079-.0053.0132-.00796ZM10.6371 9.06466c.0062-.00354.0115-.00796.0177-.01149.069-.04509.1344-.08663.2024-.12641.0053-.00354.0124-.00707.0186-.01149.0115-.00708.0221-.01415.0345-.02034.1131-.07071.2289-.13967.3421-.20597h-.0027c-.1158.06896-.2289.13702-.3421.20597-.1025.06277-.2051.12641-.3085.19271-.1078.06542-.2157.13702-.3218.20774.1079-.07072.2131-.14232.3245-.20774.0123-.00707.023-.01502.0344-.02298h.0009ZM34.8599 8.37952c.0044.20155.0053.40398-.0044.60376.0097-.20067.0088-.40221.0044-.60376ZM26.1221 4.44836c-.0186.01768-.0371.03536-.0557.05304.0195-.01679.0371-.03536.0557-.05304ZM10.2766 9.29529c-.0946.06276-.1892.12906-.28469.19448-.03536.02563-.06983.05127-.10519.07602.03536-.02475.07249-.05039.10785-.07602.09463-.06542.19003-.13172.28203-.19448ZM23.957 1.78235c.0973-.05658.1963-.1105.2971-.16089-.1008.05039-.1998.10343-.2971.16089ZM13.5781 7.57073c.2723-.10696.5499-.2042.8283-.2979-.2793.09282-.556.19094-.8283.2979ZM13.575 7.57068c-.0079.00353-.0141.00619-.0203.00972.0079-.00353.015-.00619.023-.00972h-.0027ZM4.43738 15.8643s.00177-.0027.00177-.0044c-.061.1158-.11845.2342-.1768.3527-.02121.0424-.03889.0866-.05923.129.02034-.0433.04067-.0866.06188-.129.05481-.1167.11227-.2316.1715-.3492l.00088.0009ZM4.68767 15.3887c.06541-.1212.13436-.2396.19978-.3581-.06807.1185-.13702.2369-.20243.3581-.08663.1555-.16885.3138-.24752.4711.00088-.0017.00177-.0044.00354-.0062.08044-.1556.16088-.312.24751-.4658l-.00088.0009ZM4.91943 14.9776c.0106-.0159.02121-.0336.03094-.0495.03536-.061.0716-.122.10961-.183-.03713.061-.07514.122-.11227.183-.02121.0318-.03978.069-.06099.1025.00088-.0017.00177-.0026.00265-.0044.00972-.015.01945-.0309.02917-.0486h.00089ZM5.22324 14.4844c-.01326.0212-.0274.0424-.04066.0636-.03801.061-.07514.122-.11227.183.03801-.061.07426-.122.11492-.183.01326-.0203.02564-.0433.0389-.0636h-.00089ZM2.73495 21.1912c-.00354.0247-.00884.0495-.01061.0751-.00796.0548-.01326.1105-.02122.1653.00796-.0548.01503-.1105.02387-.1653.00177-.0248.00531-.0495.00796-.0751ZM3.25442 18.837c.02122-.0786.04508-.1582.07072-.2342.04508-.1503.09193-.3006.14497-.4482.03271-.0955.06719-.1918.10078-.2873-.03448.0964-.07072.1901-.10343.2873-.05304.1476-.09989.2979-.14497.4482-.02652.0787-.05039.1556-.07072.2342-.08663.2953-.16619.5923-.23691.8929-.02033.0778-.03624.1547-.05392.2342.02033-.0795.03624-.1573.05657-.2342.07072-.3006.15028-.5976.23691-.8929ZM2.79029 20.8473c.00796-.0601.01857-.1202.03183-.1839.0106-.0601.02121-.1202.03094-.1776v-.0036c.01326-.0601.02386-.1202.03624-.1803.02122-.1096.0442-.2192.06807-.3297-.02564.1096-.04951.2192-.07072.3297-.02387.1184-.04774.2396-.06895.3607-.02122.1237-.04243.2448-.061.3686-.00442.0239-.00707.0486-.01061.0725.00442-.0248.00973-.0495.01326-.0725.01061-.0628.01857-.1229.02918-.1839h.00176ZM3.875 17.0744c.05304-.1273.10785-.2537.16354-.3792-.05658.1255-.1105.2519-.16354.3792ZM7.95538 11.1552s.00884-.0079.01326-.0123c.01238-.0115.02564-.023.03713-.0354l.00088-.0009c.05128-.0486.10255-.0963.15205-.1441-.06807.0628-.13702.1264-.20509.1927-.01679.0151-.03447.0327-.05127.0487.0115-.0115.02564-.023.0389-.0354.0053-.0044.00972-.0097.01503-.0133h-.00089ZM9.37157 9.94598c.05835-.04509.11581-.08928.1768-.13172.05039-.03712.10254-.07602.15293-.11049.01149-.00973.0221-.01768.03448-.02652-.01238.00884-.02476.01768-.03713.02652-.05304.03712-.10254.07425-.15293.11049-.061.04244-.11846.08663-.1768.13172-.06099.04773-.11845.09192-.1768.13962-.01326.0107-.02563.0221-.03978.0328.01415-.0107.02741-.023.04155-.0328.05569-.0503.1158-.09454.1768-.13962h.00088ZM5.29235 14.3773c.01326-.0212.02917-.0424.04243-.0636.13437-.2104.27669-.419.42166-.6215.08133-.1158.16354-.2289.24752-.3394.02475-.0327.05038-.0681.07514-.1026-.02564.0345-.05304.0681-.07779.1026-.08398.1131-.16619.2263-.24752.3394-.14497.2025-.2873.4111-.42166.6215-.03359.0539-.06807.1061-.10166.1591.01679-.0274.03536-.0548.05481-.084.00265-.0044.0053-.0079.00795-.0124l-.00088.0009ZM8.55265 10.6152c.03624-.0319.07337-.061.10961-.0929-.03713.0319-.07514.061-.11227.0929-.13171.1105-.26342.2289-.38983.3474.03624-.0327.07337-.0637.10961-.0973.0937-.0848.18829-.1715.28288-.251v.0009ZM6.66333 12.5228c.04155-.0495.0831-.0955.12376-.1423.02829-.0336.05746-.0672.0884-.1008 0 0 .00089-.0009.00177-.0018.06099-.0707.12376-.1396.18475-.2077-.09193.1025-.1874.206-.27669.3112-.08397.0945-.16618.1927-.25016.2926.03978-.0504.08132-.0999.12641-.1477 0 0 .00176-.0017.00176-.0026v-.0009ZM7.63832 11.4664l.07691-.0769.02563-.0256c.00884-.0098.01768-.0177.02741-.0266.02652-.0256.05304-.0512.07867-.076.01768-.0177.03625-.0362.05393-.0539-.01857.0186-.03802.0354-.05658.0539-.06895.0681-.13967.137-.20774.2051-.08928.0893-.17679.1795-.26342.2687-.0221.0221-.04244.0469-.06454.069.0221-.023.0442-.046.06719-.069.08663-.0892.17414-.1794.26342-.2687h-.00088Z" fill="#1C1C1B"/>
  <path d="M62.2566 18.1971c-.5852-.2908-1.2279-.4747-1.8997-.5436-.0247-.0027-.0504-.0045-.076-.0071-.0725-.0062-.1441-.0133-.2175-.0168-.0795-.0044-.1609-.0062-.2413-.008-.023 0-.0451-.0017-.0681-.0017h-.015c-1.7061 0-3.261.7381-4.32 1.9288-1.0591-1.1907-2.614-1.9288-4.3201-1.9288H51.0839c-.0398 0-.0796.0026-.1194.0035-.0583.0018-.1166.0018-.1741.0053-.091.0044-.1803.0124-.2705.0203-.0053 0-.0106 0-.0159.0018-.6754.0672-1.3198.2502-1.9085.5401-.0053.0027-.0115.0053-.0168.008-.0177.0088-.0372.0168-.0548.0256 0 .0009-.0009.0018-.0018.0036-1.9041.9485-3.2292 2.91-3.2478 5.1713h-.0009v7.5811h3.0109v-7.5352c0-1.5558 1.2668-2.8252 2.8067-2.8287 1.5549.0044 2.8216 1.2729 2.8216 2.8287v7.5352h3.0109v-7.5352c0-1.5558 1.2668-2.8252 2.8217-2.8287 1.5399.0044 2.8066 1.2729 2.8066 2.8287v7.5352h3.0109v-7.5352c0-2.3045-1.3587-4.3041-3.3079-5.2482h.0018ZM120.914 12.7173h-2.996v18.2623h2.996V12.7173ZM98.5799 18.1961c-.5852-.2899-1.2278-.4738-1.8988-.5436-.0247-.0027-.0504-.0044-.076-.0071-.0725-.0062-.1441-.0132-.2175-.0168-.0795-.0044-.1608-.0062-.2413-.0079-.023 0-.0451-.0018-.0681-.0018h-.015c-1.7061 0-3.261.7381-4.32 1.9289-1.059-1.1908-2.614-1.9289-4.3201-1.9289H87.4081c-.0398 0-.0796.0026-.1193.0035-.0584.0018-.1167.0018-.1742.0053-.091.0045-.1803.0124-.2705.0204-.0053 0-.0106 0-.0159.0017-.6754.0672-1.3198.2502-1.9085.5402-.0053.0026-.0115.0053-.0168.0079-.0177.0088-.0371.0168-.0548.0256 0 .0009-.0009.0018-.0018.0036-1.9041.9485-3.2292 2.9101-3.2478 5.1713h-.0008v7.5811h3.0108v-7.5351c0-1.5558 1.2668-2.8253 2.8067-2.8288 1.5549.0044 2.8217 1.273 2.8217 2.8288v7.5351h3.0108v-7.5351c0-1.5558 1.2668-2.8253 2.8217-2.8288 1.5399.0044 2.8067 1.273 2.8067 2.8288v7.5351h3.0109v-7.5351c0-2.3046-1.36-4.305-3.3088-5.2483h.0017ZM153.928 18.1961c-.586-.2899-1.228-.4738-1.899-.5436-.025-.0027-.051-.0044-.076-.0071-.073-.0062-.144-.0132-.218-.0168-.079-.0044-.161-.0062-.241-.0079-.023 0-.045-.0018-.068-.0018h-.015c-1.706 0-3.261.7381-4.32 1.9289-1.059-1.1908-2.614-1.9289-4.32-1.9289h-.015c-.04 0-.08.0026-.12.0035-.058.0018-.116.0018-.174.0053-.091.0045-.18.0124-.27.0204-.006 0-.011 0-.016.0017-.675.0672-1.32.2502-1.909.5402-.005.0026-.011.0053-.016.0079-.018.0088-.038.0168-.055.0256 0 .0009-.001.0018-.002.0036-1.904.9485-3.229 2.9101-3.248 5.1713h-.001v7.5811h3.011v-7.5351c0-1.5558 1.267-2.8253 2.807-2.8288 1.555.0044 2.822 1.273 2.822 2.8288v7.5351h3.01v-7.5351c0-1.5558 1.267-2.8253 2.822-2.8288 1.54.0044 2.807 1.273 2.807 2.8288v7.5351h3.011v-7.5351c0-2.3046-1.36-4.305-3.309-5.2483h.002ZM113.597 18.7433l-.01-.0194c-1.059-.6957-2.316-1.105-3.677-1.105-1.361 0-2.632.4084-3.692 1.105-1.8 1.1951-2.995 3.2531-2.995 5.5682 0 2.3152 1.195 4.3722 2.995 5.5682 1.06.7108 2.331 1.1201 3.692 1.1201 1.035 0 2.008-.2369 2.882-.6621.276-.1318.542-.282.795-.4482v1.1103h2.996s.017-6.5247.017-6.6768c0-2.3213-1.195-4.3678-3.002-5.5594l-.001-.0009Zm-3.687 1.8714c2.028 0 3.677 1.6495 3.677 3.6765s-1.65 3.6916-3.677 3.6916-3.692-1.6496-3.692-3.6916c0-2.042 1.65-3.6765 3.692-3.6765ZM77.2768 18.7433l-.0106-.0194c-1.059-.6957-2.3152-1.105-3.6765-1.105s-2.6325.4084-3.6915 1.105c-1.8007 1.1951-2.9959 3.2531-2.9959 5.5682 0 2.3152 1.1952 4.3722 2.9959 5.5682 1.059.7108 2.3302 1.1201 3.6915 1.1201 1.0352 0 2.0093-.2369 2.8818-.6621.2758-.1309.541-.282.7947-.4482v1.1103h2.9958s.0168-6.5256.0168-6.6768c0-2.3213-1.1951-4.3678-3.002-5.5594v-.0009Zm-3.6871 1.8714c2.0279 0 3.6765 1.6495 3.6765 3.6765s-1.6495 3.6916-3.6765 3.6916-3.6915-1.6496-3.6915-3.6916c0-2.042 1.6495-3.6765 3.6915-3.6765ZM132.624 18.7433l-.01-.0194c-1.059-.6957-2.315-1.105-3.677-1.105-1.361 0-2.632.4084-3.691 1.105-1.801 1.1951-2.996 3.2531-2.996 5.5682 0 2.3152 1.195 4.3722 2.996 5.5682 1.059.7108 2.33 1.1201 3.691 1.1201 1.036 0 2.01-.2369 2.882-.6621.276-.1309.541-.2812.795-.4482v1.1103h2.996s.016-6.5256.016-6.6768c0-2.3213-1.195-4.3678-3.002-5.5594v-.0009Zm-3.687 1.8714c2.028 0 3.677 1.6495 3.677 3.6765s-1.65 3.6916-3.677 3.6916-3.691-1.6496-3.691-3.6916c0-2.042 1.649-3.6765 3.691-3.6765ZM171.951 24.3027c0-2.3213-1.195-4.3678-3.002-5.5594l-.011-.0194c-1.059-.6957-2.315-1.105-3.676-1.105-1.362 0-2.633.4084-3.692 1.105-1.801 1.1951-2.996 3.2531-2.996 5.5682 0 2.3152 1.195 4.3722 2.996 5.5682 1.059.7108 2.33 1.1201 3.692 1.1201 1.035 0 2.009-.2369 2.881-.6621.276-.1309.541-.2812.795-.4482v1.1103h2.996s.017-4.557.017-6.6768v-.0009Zm-6.689-3.688c2.027 0 3.676 1.6495 3.676 3.6765s-1.649 3.6916-3.676 3.6916-3.692-1.6496-3.692-3.6916c0-2.042 1.65-3.6765 3.692-3.6765Z" fill="#fff"/>
</svg>
