<svg width="18" height="18" viewBox="0 0 18 18" fill="none" xmlns="http://www.w3.org/2000/svg">
<path id="free-icon-phone-call-5585562 1 (Traced)" fill-rule="evenodd" clip-rule="evenodd" d="M2.53794 0.0757457C2.38479 0.135967 2.22645 0.266289 1.7111 0.756147C0.743911 1.67557 0.603532 1.84182 0.352868 2.36497C0.0507 2.99559 -0.0663352 3.88763 0.0365672 4.7757C0.0906375 5.24221 0.299606 6.07628 0.496024 6.60948C2.08811 10.9317 7.05091 15.8988 11.3758 17.4988C12.3569 17.8618 13.2195 18.0187 14.0828 17.9912C14.7673 17.9695 15.1693 17.8765 15.7001 17.6173C16.142 17.4014 16.4096 17.1729 17.2308 16.3101C17.958 15.5461 18.0183 15.4411 17.9965 14.9774C17.9747 14.5155 17.9927 14.538 16.2488 12.7905C14.4685 11.0065 14.4908 11.024 13.9949 11.0229C13.5548 11.022 13.4693 11.0726 12.7824 11.74C12.1558 12.3489 11.9863 12.468 11.5997 12.5709C11.3527 12.6366 11.0028 12.6353 10.7416 12.5677C10.3549 12.4675 9.30038 11.8224 8.56284 11.2348C8.10644 10.8712 7.12238 9.88781 6.76769 9.44081C6.17693 8.69639 5.53571 7.64735 5.43594 7.26211C5.32924 6.85016 5.38588 6.36955 5.58497 5.99774C5.6428 5.88971 5.91034 5.58343 6.2632 5.22133C6.93651 4.53045 6.98193 4.45251 6.98025 3.99124C6.97852 3.51604 6.9954 3.53741 5.21125 1.75495C3.98381 0.52869 3.60307 0.168381 3.46564 0.102991C3.21698 -0.0153073 2.80066 -0.0275414 2.53794 0.0757457Z" fill="#F6F8FA"/>
</svg>
