<svg xmlns="http://www.w3.org/2000/svg" viewBox="0 0 98 100" width="98" height="100" fill="none">
    <path d="M57.953 28.271H13.776C6.168 28.271 0 34.439 0 42.047v44.177C0 93.832 6.168 100 13.776 100h44.177c7.608 0 13.776-6.168 13.776-13.776V42.047c0-7.608-6.168-13.776-13.776-13.776z" fill="#8ACBE5"/>
    <path d="M61.347 0a6.851 6.851 0 0 1 4.168 3.126c1.782 3.263.164 7.431-3.346 8.638-.192.054-.384.164-.603.246v.247c2.632.658 5.265 1.316 7.98 2.029.082-.411.137-.74.192-1.097.137-.85.74-1.316 1.618-1.152 3.976.713 7.952 1.481 11.928 2.139 1.18.192 2.03.713 2.852 1.563 3.51 3.565 7.075 7.075 10.585 10.612 1.124 1.124 1.096 1.618 0 2.742-2.907 2.907-5.84 5.84-8.748 8.747-1.042 1.042-1.618 1.042-2.632 0-.686-.713-1.371-1.426-2.057-2.112l-.164.083v.768c0 8.802 0 17.631 0 26.433 0 .988-.302 1.673-.987 2.359-2.797 2.742-5.567 5.484-8.281 8.281-.713.74-1.454 1.042-2.496 1.042-13.847-.028-27.722-.082-41.57 0-3.839.027-6.087-1.947-6.883-4.909v-2.33c.384-1.427 1.07-2.688 2.304-3.703-1.234-.959-1.892-2.193-2.304-3.591v-2.331c.357-1.481 1.097-2.715 2.304-3.73-1.234-.959-1.892-2.193-2.304-3.591-.027-.823-.027-1.645-.027-2.468.028-.055.082-.137.082-.192.686-2.824 3.263-4.798 6.609-4.661 2.276.082 4.552 0 6.855.027.631 0 .878-.137.823-.795-.055-1.097 0-2.194 0-3.263 0-1.125 0-2.249 0-3.62-.85.877-1.536 1.563-2.221 2.276-1.015 1.014-1.59 1.014-2.633 0a422.328 422.328 0 0 1-9.515-9.543v-1.179c.63-.63 1.234-1.289 1.892-1.92 3.154-3.153 6.334-6.307 9.46-9.488.823-.823 1.673-1.343 2.852-1.535 3.976-.659 7.952-1.426 11.928-2.139.85-.165 1.454.302 1.591 1.152.055.356.137.686.192 1.07 2.413-.604 4.689-1.207 6.992-1.728.74-.164 1.097-.411 1.07-1.262-.055-1.151.329-1.508 1.508-1.7.137 0 .274-.055.439-.082 1.754-.33 2.879-1.728 2.824-3.593-.055-1.645-1.316-3.071-2.934-3.318-1.728-.247-3.373.795-3.894 2.468-.238.75-.75 1.124-1.535 1.124H54.766c-.549.055-.768-.192-.631-.74.11-.549.165-1.097.384-1.618C55.314 1.755 56.904.576 59.016.027h2.33V0zm-18.262 29.78a31.836 31.836 0 0 0-2.742 2.742c-.274.302-.494.795-.494 1.179-.055 2.852 0 5.731-.027 8.583 0 .74.219.932.932.932 4.936-.027 9.844-.027 14.78 0 3.812 0 6.636 3.73 5.759 7.431-.33 1.399-1.07 2.523-2.221 3.483 1.535 1.261 2.385 2.879 2.358 4.826 0 1.947-.85 3.537-2.33 4.799 2.632 2.44 2.989 5.21 1.343 8.253.137.028.192.055.274.055h9.625c.52 0 .576-.247.576-.686 0-2.385 0-4.771 0-7.129 0-1.344.466-1.81 1.782-1.81h7.075c.603 0 .768-.192.768-.795 0-9.35 0-18.701-.028-28.08 0-.356-.192-.795-.438-1.07-.768-.85-1.618-1.617-2.386-2.44-.137-.137-.247-.549-.164-.63.466-.549.987-1.015 1.59-1.591 2.55 2.55 5.018 5.045 7.404 7.458 2.605-2.632 5.183-5.182 7.76-7.787l-.11-.137c-3.427-3.428-6.854-6.883-10.31-10.283-.165-.165-.439-.274-.686-.33-1.728-.328-3.483-.657-5.21-.986-1.892-.357-3.812-.686-5.703-1.015-1.454 5.539-5.183 8.61-10.667 9.076-6.746.576-11.517-2.33-13.546-9.076-3.318.603-6.636 1.261-9.954 1.81-.987.164-1.727.603-2.413 1.289a550.291 550.291 0 0 0-9.158 9.186c-.192.192-.384.411-.521.576 2.605 2.605 5.183 5.155 7.842 7.842 2.44-2.44 4.936-4.936 7.459-7.458.576.576 1.124 1.124 1.754 1.81l.028-.028zm-1.015 32.686h13.327c2.33 0 3.976-2.249 3.318-4.497-.466-1.59-1.81-2.55-3.647-2.55h-25.776c-2.303 0-3.839 1.453-3.893 3.51-.055 1.59 1.343 3.592 3.866 3.537 4.278-.082 8.583 0 12.833 0h-.028zm.055 9.625h13.245c1.535 0 2.852-.96 3.29-2.386.768-2.385-.932-4.634-3.592-4.662h-25.94c-.576 0-1.207.138-1.755.384-1.454.631-2.304 2.331-1.974 3.84.356 1.617 1.754 2.796 3.373 2.796 4.442 0 8.884 0 13.326 0h.027zm0-19.196h12.888c.329 0 .686 0 1.015-.055 1.92-.411 3.016-1.974 2.824-3.976-.164-1.673-1.727-3.016-3.647-3.016h-26.077c-2.167 0-3.73 1.508-3.702 3.537 0 2.03 1.59 3.483 3.757 3.51 4.332 0 8.637 0 12.97 0h-.028zM51.694 16.7c1.344 3.043 5.128 4.853 9.625 4.689 2.879-.11 6.554-2.441 7.349-4.69-2.742-.685-5.484-1.37-8.254-2.056-.164-.027-.356-.027-.493-.027-2.715.685-5.457 1.37-8.227 2.056v.027zm21.8 53.279c1.645-1.645 3.318-3.318 4.963-4.936h-4.442c-.165 0-.494.33-.494.494 0 1.508.027 3.043.027 4.442h-.054z" fill="#1C1C1B"/>
</svg>