<svg xmlns="http://www.w3.org/2000/svg" viewBox="0 0 92 100" width="92" height="100" fill="none">
    <path d="M64.336 19.267H15.294C6.847 19.267 0 26.115 0 34.561v49.043c0 8.446 6.847 15.293 15.294 15.293h49.042c8.446 0 15.294-6.847 15.294-15.293V34.56c0-8.446-6.847-15.293-15.294-15.293z" fill="#C7B6EF"/>
    <path d="M25.074 34.141V9.316c0-2.778.974-5.069 3.207-6.787 1.432-1.088 3.064-1.603 4.81-1.603h48.793c4.61 0 7.903 3.522 8.046 8.218.4 11.997-3.379 22.62-10.251 32.27-2.348 3.293-4.81 6.443-7.932 9.02-3.951 3.264-8.475 5.211-13.6 5.669-1.174.115-2.377.143-3.551.143h-16.236c-1.775 0-3.235.458-3.98 2.32-.315.801-1.26 1.059-2.033.744-.744-.315-1.145-1.174-.859-1.976.888-2.462 2.75-3.693 5.212-4.152.63-.114 1.289-.114 1.919-.114 5.927 0 11.854.086 17.781-.086 4.21-.114 7.789-2.405 8.161-8.103.258-4.267-2.949-8.304-7.187-9.02-.544-.086-1.088-.086-1.603-.172-.86-.114-1.432-.715-1.46-1.517-.03-.773.486-1.403 1.288-1.604 2.548-.572 5.154-1.03 7.674-1.718 5.64-1.517 11.052-3.579 15.891-6.958 3.666-2.548 6.329-5.87 7.245-10.28.372-1.832.343-3.808.143-5.669-.23-2.262-2.262-3.808-4.553-3.837-16.35 0-32.7 0-49.02 0-2.549 0-4.61 2.033-4.725 4.582v.687c0 16.493 0 33.015 0 49.508 0 3.293 1.918 5.24 5.211 5.24h48.105c3.178 0 5.154-1.976 5.154-5.154v-24.597c0-1.088.487-1.718 1.374-1.804.888-.086 1.546.373 1.747 1.26.057.258.057.515.057.773v24.511c0 3.78-2.176 6.843-5.583 7.845-.888.258-1.833.401-2.72.401H33.35c-4.066 0-7.216-2.462-8.075-6.3-.172-.744-.2-1.546-.2-2.29V34.084l-.001.057zm41.605 16.035c2.004-1.203 3.722-2.548 5.211-4.152 5.813-6.328 10.309-13.458 12.914-21.704.115-.344.172-.716.287-1.06-6.386 6.1-14.289 8.963-22.564 11.225 5.383 4.21 6.385 9.45 4.152 15.663v.028z" fill="#1C1C1B" stroke="#1C1C1B" stroke-width=".28" stroke-miterlimit="10"/>
</svg>