<svg xmlns="http://www.w3.org/2000/svg" viewBox="0 0 247 178" fill="none">
    <path d="M244.182 79.338H120.559c-21.291 0-38.551 17.26-38.551 38.551v123.624c0 21.291 17.26 38.55 38.551 38.55h123.623c21.291 0 38.551-17.26 38.551-38.55V117.889c0-21.291-17.26-38.551-38.551-38.551z" fill="#EEB3DC"/>
    <path d="M13.782 0h162.774c.168.084.336.336.504.336 8.824 2.521 13.446 8.488 13.446 17.732v180.589c0 9.58-7.395 17.227-16.807 17.227H16.723C7.479 215.884 0 208.405 0 199.077V16.807C0 11.093 2.437 6.387 7.143 3.193 9.16 1.765 11.597 1.008 13.866 0h-.084zM181.934 59.496H8.403v137.733c0 6.975 3.194 10.168 10.169 10.168h153.194c6.975 0 10.168-3.193 10.168-10.168V61.934v-2.438zm-.084-8.907V18.236c0-6.471-3.361-9.833-9.916-9.833H18.151c-6.386 0-9.748 3.362-9.748 9.748v30.337c0 .672 0 1.344 0 2.017h173.447v.084z" fill="#1C1C1B" stroke="#1C1C1B" stroke-width=".728" stroke-miterlimit="10"/>
    <path d="M95.313 80.423c29.328.168 53.194 24.118 52.857 53.194-.252 29.328-24.201 52.941-53.361 52.773-29.076-.168-52.942-24.286-52.69-53.194.252-29.244 24.118-52.857 53.11-52.689l.084-.084zm0 97.312c24.622-.084 44.286-19.917 44.286-44.539 0-24.622-20-44.286-44.874-44.202-24.118 0-43.866 20.169-43.782 44.539 0 24.454 20 44.286 44.454 44.202h-.084z" fill="#1C1C1B" stroke="#1C1C1B" stroke-width=".728" stroke-miterlimit="10"/>
    <path d="M40.082 42.438H22.35c-4.033 0-5.546-1.597-5.546-5.63v-14.706c0-3.53 1.597-5.126 5.126-5.21h36.471c3.53 0 5.126 1.596 5.126 5.126v15.126c0 3.53-1.597 5.21-5.126 5.21h-18.32v.084zm14.706-16.89H25.544v8.066h29.244v-8.067zM97.3 29.749c0 6.975-5.798 12.689-12.773 12.605-7.059 0-12.605-5.714-12.605-12.773 0-7.059 5.63-12.69 12.69-12.69 7.142 0 12.772 5.715 12.688 12.858zm-8.487-.084c0-2.185-1.933-4.118-4.118-4.202-2.269 0-4.202 1.765-4.286 4.034 0 2.353 1.849 4.286 4.202 4.286 2.269 0 4.118-1.933 4.202-4.118zM139.743 25.293h4.202c2.353.084 4.118 1.933 4.286 4.118.084 2.185-1.597 4.202-3.95 4.286-3.109.168-6.134.168-9.244 0-2.268-.168-3.865-2.1-3.865-4.202 0-2.185 1.849-4.034 4.202-4.202 1.428-.084 2.941 0 4.453 0h-.084zM165.122 25.295h4.033c2.521.084 4.37 1.933 4.37 4.202 0 2.184-1.597 4.117-4.034 4.285-3.025.169-6.05.169-8.991 0-2.437-.168-4.034-2.1-3.95-4.285 0-2.27 1.849-4.034 4.202-4.118 1.428 0 2.941 0 4.454 0l-.084-.084zM114.305 25.295h4.202c2.437.084 4.118 1.765 4.202 4.117.084 2.354-1.345 4.202-3.866 4.37-3.109.169-6.134.169-9.244 0-2.437-.168-3.949-2.1-3.865-4.37.084-2.184 1.849-3.865 4.117-4.033 1.429-.084 2.942 0 4.454 0v-.084zM131.156 133.278c.084 19.748-16.134 36.135-35.966 36.135-19.832 0-35.967-16.135-36.135-35.967-.084-19.832 16.051-36.05 35.967-36.05 19.916 0 36.05 15.966 36.134 35.882zm-18.739-20.924c-9.412-8.488-26.135-9.16-36.891 1.848-10.505 10.757-10.505 27.984 0 38.488 11.428 11.429 28.319 9.748 36.807 1.849-15.042-11.093-14.118-31.933.084-42.185zm5.798 35.546c6.219-9.16 5.126-22.437-.168-28.992-5.378 3.53-8.235 8.404-8.067 14.79.168 6.051 2.941 10.757 8.235 14.202z" fill="#1C1C1B" stroke="#1C1C1B" stroke-width=".728" stroke-miterlimit="10"/>
</svg>
