<svg width="18" height="18" viewBox="0 0 18 18" fill="none" xmlns="http://www.w3.org/2000/svg">
<path id="Vector" d="M14.943 3.04997C13.3625 1.47497 11.2552 0.599976 9.03083 0.599976C4.40644 0.599976 0.660098 4.33331 0.660098 8.94164C0.660098 10.4 1.06986 11.8583 1.77229 13.0833L0.601562 17.4L5.05034 16.2333C6.27961 16.875 7.62595 17.225 9.03083 17.225C13.6552 17.225 17.4016 13.4916 17.4016 8.88331C17.343 6.72498 16.5235 4.62497 14.943 3.04997ZM13.0699 11.9166C12.8942 12.3833 12.0747 12.85 11.665 12.9083C11.3138 12.9666 10.8455 12.9666 10.3772 12.85C10.0845 12.7333 9.67473 12.6166 9.20644 12.3833C7.09912 11.5083 5.75278 9.40831 5.63571 9.23331C5.51864 9.11664 4.75766 8.12497 4.75766 7.07497C4.75766 6.02497 5.28449 5.55831 5.4601 5.32497C5.63571 5.09164 5.86985 5.09164 6.04546 5.09164C6.16254 5.09164 6.33815 5.09164 6.45522 5.09164C6.57229 5.09164 6.7479 5.03331 6.92351 5.44164C7.09912 5.84998 7.50888 6.89998 7.56741 6.95831C7.62595 7.07498 7.62595 7.19164 7.56741 7.30831C7.50888 7.42498 7.45034 7.54164 7.33327 7.65831C7.21619 7.77497 7.09912 7.94997 7.04058 8.00831C6.92351 8.12497 6.80644 8.24164 6.92351 8.41664C7.04059 8.64997 7.45034 9.29164 8.09424 9.87497C8.91376 10.575 9.55766 10.8083 9.79181 10.925C10.026 11.0416 10.143 10.9833 10.2601 10.8666C10.3772 10.75 10.7869 10.2833 10.904 10.05C11.0211 9.81664 11.1967 9.87498 11.3723 9.93331C11.5479 9.99164 12.6016 10.5166 12.7772 10.6333C13.0113 10.75 13.1284 10.8083 13.1869 10.8666C13.2455 11.0416 13.2455 11.45 13.0699 11.9166Z" fill="#F6F8FA"/>
</svg>
